<?xml version="1.0" encoding="utf-8"?>
<!-- Generator: Adobe Illustrator 18.0.0, SVG Export Plug-In . SVG Version: 6.00 Build 0)  -->
<!DOCTYPE svg PUBLIC "-//W3C//DTD SVG 1.1//EN" "http://www.w3.org/Graphics/SVG/1.1/DTD/svg11.dtd">
<svg version="1.1" id="logo" xmlns="http://www.w3.org/2000/svg" xmlns:xlink="http://www.w3.org/1999/xlink" x="0px" y="0px"
	 viewBox="0 0 135.7 89.5" enable-background="new 0 0 135.7 89.5" xml:space="preserve">
<path id="logotipo" fill-rule="evenodd" clip-rule="evenodd" fill="#001F6B" d="M83.9,63.9c-2.4,0-4.3,0.8-5.9,2.5
	c-1.6,1.7-2.3,3.8-2.3,6.4c0,2.6,0.8,4.8,2.4,6.5c1.6,1.7,3.5,2.5,5.9,2.5c2.4,0,4.4-0.8,5.9-2.5c1.6-1.7,2.4-3.8,2.4-6.5
	c0-2.6-0.8-4.8-2.4-6.4C88.3,64.7,86.3,63.9,83.9,63.9 M91.9,45.9h7.6v42h-7.6v-3.2c-1.5,1.4-3,2.4-4.5,3.1
	c-1.5,0.6-3.1,0.9-4.9,0.9c-3.9,0-7.3-1.5-10.2-4.6c-2.9-3-4.3-6.8-4.3-11.3c0-4.7,1.4-8.5,4.1-11.5c2.8-3,6.1-4.5,10.1-4.5
	c1.8,0,3.5,0.3,5.1,1c1.6,0.7,3.1,1.7,4.4,3.1V45.9z M54.1,56.9c-1.5,0-2.9,0.3-4.3,0.9c-1.4,0.6-3,1.6-4.7,3v-3.1h-7.6V88h7.6V75.8
	c0-3.2,0.1-5.2,0.3-6.2c0.4-1.8,1.2-3.2,2.3-4.3c1.1-1,2.4-1.5,4-1.5c1.2,0,2.2,0.3,3,0.9c0.8,0.6,1.4,1.5,1.7,2.7
	c0.3,1.2,0.5,3.6,0.5,7.2V88h7.5v-20c0-3.5-0.9-6.1-2.6-7.9C59.6,57.9,57.1,56.9,54.1,56.9 M118.6,63.9c-2.3,0-4.3,0.8-5.9,2.5
	c-1.6,1.7-2.3,3.8-2.3,6.4c0,2.6,0.8,4.8,2.4,6.5c1.6,1.7,3.5,2.5,5.8,2.5c2.4,0,4.4-0.8,5.9-2.5c1.6-1.7,2.4-3.8,2.4-6.5
	c0-2.6-0.8-4.8-2.4-6.4C123,64.7,121,63.9,118.6,63.9 M126.6,57.6h8.5V88l-7.9,0v-7.1c-0.5,3.3-4.9,6.2-5.9,6.6
	c-1,0.4-1.9,1-4.9,0.9c-2.9,0-6.2-1.1-9.3-4.2c-2.9-3-4.3-6.8-4.3-11.3c0-4.7,1.4-8.5,4.1-11.5c2.8-3,6.1-4.5,10.1-4.5
	c1.8,0,3.5,0.3,5.1,1c1.6,0.7,3.1,1.7,4.4,3.1V57.6z M16.4,63.9c-2.4,0-4.3,0.8-5.9,2.5c-1.6,1.7-2.3,3.8-2.3,6.4
	c0,2.6,0.8,4.8,2.4,6.5c1.6,1.7,3.5,2.5,5.9,2.5c2.4,0,4.4-0.8,5.9-2.5c1.6-1.7,2.4-3.8,2.4-6.5c0-2.6-0.8-4.8-2.4-6.4
	C20.8,64.7,18.8,63.9,16.4,63.9 M24.4,57.6h8.5V88L25,88v-7.1c-0.5,3.3-4.9,6.2-5.9,6.6c-1,0.4-1.9,1-4.9,0.9
	c-2.9,0-6.2-1.1-9.3-4.2c-2.9-3-4.3-6.8-4.3-11.3c0-4.7,1.4-8.5,4.1-11.5c2.8-3,6.1-4.5,10.1-4.5c1.8,0,3.5,0.3,5.1,1
	c1.6,0.7,3.1,1.7,4.4,3.1V57.6z"/>
<path id="isotipo" fill="#001F6B" d="M95.8,8c0.4-0.3,0.5-1,0.2-1.4L94,3.8c-0.3-0.4-0.9-0.5-1.2-0.2L83.5,11
	c-0.4,0.3-1.2,0.6-1.7,0.6h-8.7c-4.8,0.1-5.3,3.3-5.3,3.3c-1.7-3.9-5.3-3.3-5.3-3.3h-8.4c-0.5,0-1.3-0.3-1.7-0.6l-8.8-6.9
	c-0.4-0.3-1-0.3-1.4,0.1l-2.4,2.2c-0.4,0.4-0.4,0.9,0,1.3l10.8,9.9c0.4,0.3,0.7,1,0.7,1.6l0.1,26c0,0.5,0.4,0.9,0.9,0.9h28
	c0.5,0,0.9-0.4,0.9-0.9v-7.8c0-0.5,0.4-0.9,0.9-0.9l4.4,0.1c0.5,0,0.8-0.4,0.7-0.9l-3.7-16.3c-0.1-0.5,0.1-1.2,0.5-1.5L95.8,8z
	 M67.7,16.3c2.3,0,4.1,1.7,4.1,3.7c0,2.1-1.8,3.7-4.1,3.7c-2.3,0-4.1-1.7-4.1-3.7C63.6,18,65.5,16.3,67.7,16.3 M79.2,23.7l-6.8,5.4
	c-0.4,0.3-0.7,1-0.7,1.5v13.9c0,0.7-0.7,1.3-1.4,1.3h-5.5c-0.8,0-1.5-0.6-1.5-1.3V30.7c0-0.5-0.3-1.2-0.7-1.5l-6.8-5.4
	c-0.4-0.3-0.5-0.9-0.2-1.4l1-1.4c0.3-0.4,0.9-0.5,1.3-0.3c0,0,3.8,2.4,4.7,2.9c0.9,0.5,2.9,1.3,4.9,1.3c2,0,4.1-0.8,4.9-1.3
	c0.9-0.5,4.7-2.9,4.7-2.9c0.4-0.3,1-0.2,1.3,0.3l1,1.4C79.7,22.8,79.6,23.4,79.2,23.7 M59.3,10.3c-2.9,0-5.3-2.2-5.3-4.8
	c0-2.7,2.4-4.8,5.3-4.8c2.9,0,5.3,2.2,5.3,4.8C64.5,8.2,62.2,10.3,59.3,10.3 M76.3,10.3c-2.9,0-5.3-2.2-5.3-4.8
	c0-2.7,2.4-4.8,5.3-4.8c2.9,0,5.3,2.2,5.3,4.8C81.5,8.2,79.2,10.3,76.3,10.3"/>
</svg>
