<svg xmlns="http://www.w3.org/2000/svg" xmlns:xlink="http://www.w3.org/1999/xlink" id="Capa_1" version="1.1" viewBox="11.78 8.37 394.92 95.55">
  <!-- Generator: Adobe Illustrator 29.1.0, SVG Export Plug-In . SVG Version: 2.1.0 Build 142)  -->
  <defs>
    <style>
      .st0 {
        fill: #fff;
      }

      .st1 {
        filter: url(#outer-glow-1);
      }

      .st2 {
        fill: #2a3341;
      }

      .st3 {
        fill: #e77108;
      }
    </style>
    <filter id="outer-glow-1" x="11.78" y="8.38" width="394.92" height="95.54" filterUnits="userSpaceOnUse">
      <feOffset dx="0" dy="0"/>
      <feGaussianBlur result="blur" stdDeviation="2.43"/>
      <feFlood flood-color="#fff" flood-opacity="1"/>
      <feComposite in2="blur" operator="in"/>
      <feComposite in="SourceGraphic"/>
    </filter>
  </defs>
  <g class="st1">
    <polygon class="st3" points="129.93 90.38 116.45 99.34 13.56 99.34 13.56 81.52 116.45 81.52 129.93 90.38"/>
    <polygon class="st3" points="406.7 81.52 406.7 99.4 150.91 99.34 138.57 90.28 150.91 81.52 406.7 81.52"/>
    <path class="st2" d="M53.73,8.38c-1.79,0-3.97.04-4.38.05h-17.24s-6.53.11-6.53.11h-.78s-.75.21-.75.21c-.51.14-3.2.93-5.91,3.02-1.74,1.35-3.15,2.96-4.19,4.79-1.32,2.32-2,4.91-2.04,7.71-.11,7.32-.13,29.96-.13,31.71-.01.55,0,2.1.39,4,.27,1.34.68,2.61,1.21,3.78.72,1.59,1.66,3,2.79,4.19,1.92,2.01,5.38,4.41,10.98,4.43,2.52,0,5.98.01,10.3.01,6.55,0,13.16-.01,14.59-.01.32.02.77.05,1.33.05,1.36,0,3.48-.14,5.8-.82,2.96-.87,5.51-2.36,7.57-4.44,1.77-1.79,3.13-3.96,4.04-6.48.95-2.6,1.42-5.57,1.41-8.85v-.04s0-.04,0-.04l-.06-3.95-.1-6.26h-22.64l.09,6.46.03,2.42-14.46-.07v-18.9l14.41-.07.02,1.1.11,6.33,6.3-.08,10.12-.13,5.92-.07.32-5.95.18-3.3c.1-.82.28-2.68.1-4.96-.14-1.77-.46-3.45-.96-4.99-.69-2.13-1.71-4-3.05-5.57-2.06-2.43-5.88-5.31-12.44-5.35-.46-.03-1.14-.05-2.35-.05M55.79,8.43h.01-.01ZM18.11,56.04c0-.78.02-24.3.13-31.68.11-7.5,7.45-9.47,7.45-9.47l6.53-.11h17.19s2.42-.05,4.32-.05c.95,0,1.77.01,2.1.05.04,0,.09,0,.13,0,9.13,0,10.32,7.58,10.32,11.55,0,1.41-.15,2.36-.15,2.36l-.19,3.56-10.12.13-.13-7.38-26.95.13v31.57l20.88.1h0l6.33.03-.13-8.91h10l.06,3.95s0,.08,0,.11c0,12.98-9.32,14.09-12.5,14.09-.66,0-1.05-.05-1.05-.05,0,0-7.41.01-14.86.01-3.72,0-7.46,0-10.28-.01-8.75-.03-9.08-8.54-9.08-9.8,0-.1,0-.16,0-.16h0v-.02h0Z"/>
    <path class="st2" d="M142.63,8.88h-28.88l-1.9,2.48-9.53,12.44-9.45-12.43-1.9-2.5h-29.81l8.25,10.35,20.74,26v27.38h23.11v-27.36l20.99-26,8.38-10.38ZM106.29,29.04l10.56-13.79h12.48l-22.4,27.75v23.25h-10.46v-23.25l-22.13-27.75h13.5l10.48,13.78.13.18,3.84,5.05,3.86-5.04.14-.18Z"/>
    <path class="st2" d="M204.78,8.71h-19.27l-1.87,2.87-14.22,21.8-14.36-21.82-1.88-2.85h-18.16v63.73h21.09v-19.74l6.88,10.72,1.87,2.91h9.19l1.87-2.94,6.68-10.52v19.57h22.18V8.71ZM173.21,39.16l15.71-24.08h9.53v51h-9.53V31.08l-18.34,28.89h-2.28l-18.52-28.85v34.96h-8.43V15.08h8.43l15.85,24.1.31.47,3.49,5.31,3.47-5.32.31-.47Z"/>
    <path class="st2" d="M249.36,8.71h-18.17l-1.73,3.58-24.66,51-4.42,9.15h24.75l1.71-3.65,3.18-6.79h19.62l3.55,6.98,1.76,3.46h25.79l-4.52-9.19-25.1-51-1.74-3.54ZM210.48,66.08l24.66-51h10.29l25.1,51h-11.72l-5.31-10.44h-27.5l-4.89,10.44h-10.63ZM239.92,25.94l-9.16,19.6h18.3l-9.14-19.6Z"/>
    <path class="st2" d="M317.83,8.63c-1.79,0-3.97.04-4.38.05h-17.23s-6.53.11-6.53.11h-.78s-.75.21-.75.21c-.51.14-3.2.93-5.91,3.02-1.74,1.35-3.15,2.96-4.19,4.79-1.32,2.32-2,4.91-2.04,7.71-.11,7.32-.13,29.96-.13,31.71-.01.55,0,2.1.39,4,.27,1.34.68,2.61,1.21,3.78.71,1.59,1.66,3,2.79,4.19,1.92,2.01,5.38,4.41,10.98,4.43,2.47,0,5.93.01,10.3.01,6.55,0,13.16-.01,14.59-.01.32.02.77.05,1.32.05,1.37,0,3.48-.14,5.81-.82,2.96-.87,5.51-2.36,7.57-4.45,1.77-1.79,3.13-3.96,4.05-6.48.95-2.6,1.42-5.57,1.41-8.85v-.04s0-.04,0-.04l-.06-3.95-.1-6.26h-22.64l.09,6.46.03,2.42-14.46-.07v-18.9l14.41-.07.02,1.1.11,6.33,6.3-.08,10.12-.13,5.92-.07.32-5.95.18-3.3c.1-.83.28-2.68.1-4.96-.14-1.77-.46-3.45-.96-4.99-.69-2.13-1.72-4-3.05-5.57-2.06-2.43-5.88-5.31-12.44-5.35-.46-.03-1.14-.05-2.35-.05M319.9,8.68h.01-.01ZM282.21,56.3c0-.78.02-24.3.13-31.67.11-7.5,7.45-9.47,7.45-9.47l6.53-.11h17.19s2.42-.05,4.32-.05c.95,0,1.77.01,2.1.05.04,0,.09,0,.13,0,9.13,0,10.32,7.58,10.32,11.55,0,1.41-.15,2.36-.15,2.36l-.19,3.56-10.12.13-.13-7.38-26.95.13v31.57l20.88.1h0l6.33.03-.13-8.91h10l.06,3.95v.12c0,12.98-9.32,14.09-12.5,14.09-.66,0-1.05-.05-1.05-.05,0,0-7.41.01-14.86.01-3.72,0-7.46,0-10.28-.01-8.75-.03-9.08-8.54-9.08-9.8,0-.1,0-.16,0-.16h0v-.02h0Z"/>
    <path class="st2" d="M388.34,8.68c-.43,0-.79.02-1.05.03h-32.65c-2.82,0-5.38.47-7.6,1.38-2.18.9-4.03,2.23-5.51,3.94-1.12,1.3-2.01,2.81-2.64,4.48-.47,1.25-.79,2.59-.96,3.99-.2,1.65-.14,3-.07,3.77v29.36c0,3.09.52,5.84,1.54,8.19,1.01,2.31,2.49,4.23,4.4,5.69,1.53,1.17,3.29,2.01,5.25,2.51,1.34.34,2.74.51,4.17.51.75,0,1.38-.05,1.83-.1h32.49c3,0,5.66-.47,7.93-1.39,2.29-.93,4.19-2.31,5.65-4.11,1.74-2.14,2.78-4.81,3.01-7.73.1-1.3.03-2.39-.06-3.11v-31.36c0-3.11-.62-5.89-1.86-8.25-1.15-2.21-2.79-4-4.88-5.33-1.54-.98-3.29-1.69-5.2-2.1-1.24-.26-2.52-.4-3.8-.4M386.89,8.74s0,0,0,0c0,0,0,0,0,0M386.87,8.75s0,0,.01,0c0,0,0,0-.01,0M344.12,24.77c0-2.81.98-9.69,10.52-9.69h32.9s.3-.03.8-.03c2.41,0,9.4.77,9.4,9.71v31.82s.11.55.11,1.38c0,2.64-1.1,8.12-10.32,8.12h-32.9s-.56.1-1.42.1c-2.86,0-9.04-1.09-9.04-10.54v-29.7s-.06-.45-.06-1.17M337.92,26.81h0s0,0,0,0M387.54,24.75h-32.9v31.82h32.9v-31.82ZM360.97,31.11h20.24v19.09h-20.24v-19.09Z"/>
    <path class="st3" d="M55.82,32.39l10.12-.13.19-3.69s2.21-14-10.3-13.9c-.98-.11-6.42,0-6.42,0h-17.19l-6.53.11s-7.34,1.97-7.45,9.47c-.11,7.5-.13,31.69-.13,31.69,0,0-.41,10.12,9.05,10.15,8.46.03,23.92-.1,25.14,0,6.66-.16,13.64,1.43,13.58-14.35l-.06-3.95h-10l.13,8.91-27.2-.13v-31.44l26.95-.13.13,7.38Z"/>
    <polygon class="st3" points="74.13 15.25 87.92 15.08 102.38 34.09 116.94 15.08 129.42 15.08 107.02 42.83 106.93 66.25 96.47 66.25 96.26 42.99 74.13 15.25"/>
    <polygon class="st3" points="141.35 15.08 149.78 15.08 169.44 44.95 188.92 15.08 198.45 15.08 198.45 66.08 188.92 66.08 188.92 31.08 170.58 59.97 168.31 59.97 149.78 31.11 149.78 66.08 141.35 66.08 141.35 15.08"/>
    <path class="st3" d="M245.44,15.08h-10.29l-24.71,51.09h10.68l4.89-10.44h27.5l5.31,10.44h11.79l-25.17-51.09ZM230.76,45.54l9.16-19.52,9.14,19.52h-18.3Z"/>
    <path class="st3" d="M319.92,32.68l10.12-.13.19-3.56s2.19-14.08-10.32-13.98c-.98-.11-6.42,0-6.42,0l-17.17.04-6.55.07s-7.32,2.05-7.43,9.55c-.11,7.5-.13,31.7-.13,31.7,0,0-.38,9.93,9.07,9.96,8.46.03,23.92-.1,25.14,0,6.66-.16,13.62,1.62,13.55-14.16l-.06-4.02h-10l.13,8.94-27.2-.13v-31.53l26.95-.13.13,7.38Z"/>
    <path class="st3" d="M397.74,56.57v-31.82c0-10.8-10.21-9.67-10.21-9.67h-32.9c-12,0-10.46,10.86-10.46,10.86v29.7c0,12.29,10.46,10.44,10.46,10.44h32.9c12.13,0,10.21-9.51,10.21-9.51M387.54,56.57h-32.9v-31.82h32.9v31.82Z"/>
    <polygon class="st2" points="150.91 81.52 138.57 90.28 150.91 99.34 406.7 99.4 406.64 103.92 149.75 103.92 134.32 93.2 117.76 103.92 13.56 103.92 13.56 99.34 116.45 99.34 129.93 90.38 116.45 81.52 13.56 81.52 13.56 76.63 117.76 76.63 134.32 87.44 149.79 76.63 406.7 76.63 406.7 81.52 150.91 81.52"/>
    <path class="st0" d="M172.43,95.73v-9.11h4.67c.87,0,1.53.07,1.98.22.46.15.83.43,1.11.83.28.4.42.9.42,1.48,0,.51-.11.94-.32,1.31-.21.37-.51.66-.89.89-.24.14-.57.27-.98.36.33.11.58.22.73.34.1.08.25.23.45.48.2.24.33.43.39.57l1.36,2.64h-3.16l-1.5-2.78c-.19-.36-.36-.6-.51-.7-.2-.14-.43-.21-.69-.21h-.25v3.7h-2.81ZM175.23,90.31h1.19c.13,0,.38-.04.74-.12.19-.04.34-.13.46-.29.12-.15.18-.33.18-.53,0-.29-.09-.52-.28-.68-.19-.16-.54-.24-1.05-.24h-1.23v1.85Z"/>
    <polygon class="st0" points="182.22 86.62 189.72 86.62 189.72 88.57 185.03 88.57 185.03 90.01 189.38 90.01 189.38 91.87 185.03 91.87 185.03 93.67 189.86 93.67 189.86 95.73 182.22 95.73 182.22 86.62"/>
    <path class="st0" d="M191.36,86.62h4.65c1.01,0,1.77.24,2.27.73.5.48.76,1.17.76,2.07s-.28,1.64-.82,2.16c-.55.52-1.39.78-2.52.78h-1.53v3.38h-2.81v-9.11ZM194.17,90.5h.68c.54,0,.92-.09,1.13-.28.22-.19.33-.43.33-.72s-.09-.53-.28-.73c-.19-.2-.54-.3-1.07-.3h-.79v2.03Z"/>
    <path class="st0" d="M206.4,86.62h2.79v5.43c0,.54-.08,1.05-.25,1.52-.17.48-.43.9-.79,1.25-.36.36-.73.61-1.12.75-.54.2-1.2.3-1.96.3-.44,0-.92-.03-1.44-.09-.52-.06-.96-.18-1.31-.37-.35-.18-.67-.45-.96-.79-.29-.34-.49-.69-.6-1.05-.17-.58-.26-1.09-.26-1.54v-5.43h2.79v5.56c0,.5.14.88.41,1.16.27.28.65.42,1.14.42s.86-.14,1.14-.41c.27-.28.41-.67.41-1.17v-5.56Z"/>
    <polygon class="st0" points="211.03 86.62 218.54 86.62 218.54 88.57 213.84 88.57 213.84 90.01 218.2 90.01 218.2 91.87 213.84 91.87 213.84 93.67 218.67 93.67 218.67 95.73 211.03 95.73 211.03 86.62"/>
    <path class="st0" d="M219.69,92.71l2.67-.17c.06.44.18.77.35,1,.29.37.7.55,1.23.55.4,0,.71-.09.92-.28.22-.19.32-.41.32-.66s-.1-.45-.31-.63c-.21-.19-.68-.36-1.43-.53-1.23-.28-2.1-.65-2.63-1.11-.53-.46-.79-1.05-.79-1.76,0-.47.14-.91.4-1.33.27-.42.68-.74,1.22-.98.54-.24,1.28-.36,2.23-.36,1.16,0,2.04.22,2.65.65.61.43.97,1.12,1.08,2.07l-2.64.16c-.07-.41-.22-.71-.44-.9-.23-.19-.54-.28-.93-.28-.33,0-.57.07-.74.21-.16.14-.25.31-.25.51,0,.14.07.28.2.39.13.12.45.23.94.34,1.22.27,2.1.53,2.63.81.53.27.91.61,1.16,1.01.24.4.36.85.36,1.35,0,.59-.16,1.12-.48,1.62-.32.49-.77.87-1.35,1.12-.58.25-1.3.38-2.18.38-1.54,0-2.61-.3-3.2-.9-.59-.6-.93-1.36-1.01-2.28"/>
    <polygon class="st0" points="228.68 86.62 237.19 86.62 237.19 88.87 234.34 88.87 234.34 95.73 231.54 95.73 231.54 88.87 228.68 88.87 228.68 86.62"/>
    <path class="st0" d="M237.67,91.18c0-1.49.41-2.65,1.24-3.48.83-.83,1.97-1.24,3.44-1.24s2.67.41,3.48,1.22c.82.81,1.22,1.96,1.22,3.42,0,1.06-.18,1.94-.53,2.62-.36.68-.87,1.21-1.55,1.59-.67.38-1.51.57-2.52.57s-1.87-.16-2.54-.49c-.67-.33-1.21-.85-1.63-1.55-.42-.71-.62-1.6-.62-2.66M240.47,91.19c0,.92.17,1.58.51,1.98.34.4.8.6,1.39.6s1.07-.2,1.4-.59c.33-.39.49-1.1.49-2.12,0-.86-.17-1.48-.52-1.88-.34-.4-.81-.59-1.4-.59s-1.02.2-1.36.6c-.34.4-.51,1.07-.51,2"/>
    <path class="st0" d="M248.07,92.71l2.66-.17c.06.44.17.77.35,1,.29.37.7.55,1.23.55.4,0,.71-.09.92-.28.22-.19.32-.41.32-.66s-.1-.45-.31-.63c-.21-.19-.68-.36-1.43-.53-1.23-.28-2.1-.65-2.63-1.11-.53-.46-.79-1.05-.79-1.76,0-.47.13-.91.4-1.33.27-.42.68-.74,1.22-.98.54-.24,1.28-.36,2.23-.36,1.16,0,2.04.22,2.65.65.61.43.97,1.12,1.08,2.07l-2.64.16c-.07-.41-.22-.71-.44-.9-.23-.19-.54-.28-.93-.28-.33,0-.57.07-.74.21-.16.14-.25.31-.25.51,0,.14.07.28.2.39.13.12.45.23.94.34,1.22.27,2.1.53,2.63.81.53.27.91.61,1.16,1.01.24.4.36.85.36,1.35,0,.59-.16,1.12-.48,1.62-.32.49-.77.87-1.35,1.12-.58.25-1.3.38-2.18.38-1.54,0-2.61-.3-3.2-.9-.59-.6-.93-1.36-1.01-2.28"/>
  </g>
</svg>