<?xml version="1.0" encoding="utf-8"?>
<!-- Generator: Adobe Illustrator 17.0.0, SVG Export Plug-In . SVG Version: 6.00 Build 0)  -->
<!DOCTYPE svg PUBLIC "-//W3C//DTD SVG 1.1//EN" "http://www.w3.org/Graphics/SVG/1.1/DTD/svg11.dtd">
<svg version="1.1" id="Capa_1" xmlns="http://www.w3.org/2000/svg" xmlns:xlink="http://www.w3.org/1999/xlink" x="0px" y="0px"
	 width="1275.128px" height="498.05px" viewBox="62.253 146.293 1275.128 498.05"
	 enable-background="new 62.253 146.293 1275.128 498.05" xml:space="preserve">
<g id="Capa_x0020_3">
	<path fill="#606062" d="M305.445,422.788c-2.173,8.183-5.244,14.594-7.267,22.928c-6.078-8.844-8.982,13.359-25.813,23.669
		c-14.797,9.064-11.468-3.899-9.488-16.68c1.486-9.593,2.444-19.083-6.864-19.083c-10.809,0-34.531,36.588-43.926,29.109
		c-5.741-7.43,1.887-21.11,20.668-33.471c4-2.632,10.632-6.104,15.525-8.049c4.133-1.642,7.695-2.174,10.375-3.363
		c5.324-2.364,3.403-9.217-2.848-9.16c-12.693,0.117-30.658,11.484-36.068,16.302c-33.754,30.051-14.403,48.651-3.808,48.651
		c14.679,0,26.463-17.938,35.935-24.485c0.302,8.888-5.337,32.932,14.523,32.856c5.61,0,11.484-5.403,15.282-8.973
		c4.409-4.145,9.696-11.897,13.018-16.924c-1.193,5.121-3.391,12.014-5.4,16.844c-2.709,6.513-2.4,11.742,4.04,11.818
		c3.614,0.529,4.951-5.219,7.372-12.284l13.836-46.236c8.518,2.506,14.946,5.893,20.256,10.131c0,10.916-7.829,41.278,1.608,50.927
		c13.622,13.927,30.964-3.362,34.328-9.829c4.2,3.078,13.661,19.704,29.855,0.884c3.335-3.779,6.388-9.369,8.999-13.277
		c0.734-1.099,4.64-4.245,4.516,0.001c-0.272,9.246-3.288,28.674-3.288,37.655c0,37.202-0.174,65.643,8.004,101.691
		c1.716,7.567,3.827,16.178,11.898,12.304c2.051-4.401,0.338-4.143-1.313-8.315c-5.097-17.088-7.063-41.989-7.887-61.203
		c-0.454-10.58-0.822-21.438-0.526-32.421c0.712-26.415,4.213-53.423,8.272-76.473c0.141-3.272,1.161-10.788,2.205-10.917
		c3.106-0.384,5.209-1.403,4.076-15.943c0-8.406,4.924-11.979,4.924-22.869c0-5.27-5.993-6.693-8.404-3.204
		c-2.292,3.316-2.559,7.705-4.813,12.406c-4.74-4.146-14.748-10.221-34.776,10.559c-10.828,11.233-23.625,36.272-24.442,52.972
		c-0.432,8.826-0.157,9.308-5.152,14.202c-5.723,5.607-21.095,14.424-21.095-1.994c0-11.912,3.391-20.166,3.391-32.078
		c0-14.956-15.575-18.967-26.963-24.432c2.78-10.052,9.801-31.522-1.129-39.73c-8.911-6.692-21.504-1.976-28.268,5.7
		c-3.939,3.597-6.285,9.742-6.855,14.989c-0.729,6.704,2.011,12.437,6.191,15.928c3.796,3.169,12.087,7.654,17.297,8.868
		L305.445,422.788z M1034.149,350.669v2.766c10.794,7.23,9.06,1.914,10.293-0.711
		C1051.168,338.405,1034.149,336.627,1034.149,350.669z M514.923,442.219c0,21.238,13.518,29.12,26.639,29.455
		c13.375,0.342,28.291-7.367,28.291-18.621c0-4.488-2.793-3.614-5.467-0.945c-4.675,4.666-8.104,10.485-20.989,10.6
		c-16.947-0.15-20.966-12.144-18.096-24.236c21.786,0.755,33.799-22.083,25.471-32.013
		C535.758,390.73,514.924,418.11,514.923,442.219L514.923,442.219z M528.677,427.894c1.072-5.543,6.413-13.334,11.123-15.847
		c0,0,4.974-2.146,4.601,2.658c-0.475,6.105-7.743,11.868-12.71,14.712C528.653,431.157,528.275,429.968,528.677,427.894
		L528.677,427.894z M457.803,450.212c0-10.632-0.306-11.79,1.992-21.174c1.956-7.992,5.689-16.154-3.375-16.154
		c-3.94,0-8.457,12.171-9.409,25.368c-1.127,15.629,3.243,32.548,20.844,32.548c11.011,0.151,16.884-13.145,22.816-21.569
		c1.058,4.571,1.799,10.416,1.68,18.96c-0.135,9.698,0.186,15.505,6.916,15.204c1.958,0.05,2.712-2.865,2.824-8.728
		c0.334-17.513,0.945-45.892,1.031-52.693c0.094-7.445-1.912-12.48-6.62-12.48c-7.059,0-12.033,26.664-15.155,34.485
		c-9.651,25.019-23.545,18.689-23.545,6.236L457.803,450.212z M872.513,470.922c0.124,4.411,1.516,8.474,6.007,8.323
		c4.315,0,4.597-5.255,4.414-10.21c-0.386-10.493,5.579-36.13,13.127-61.048c8.328-27.492,18.57-56.263,23.97-66.902
		c1.695-2.633,2.968-4.674,3.347,0.244c1.386,18.012,1.584,40.611,1.584,60.494c0,14.12,0.729,30.85,2.174,46.214
		c2.132,9.105,8.49,9.967,13.897,2.956c4.348-5.638,7.874-12.352,11.347-18.123c5.224-8.677,10.78-19.412,15.64-29.231
		c3.138-6.341,20.218-39.103,26.59-48.359c0.861-1.251,1.9-2.763,2.674-0.335c1.572,40.06,1.75,83.171,8.144,122.733
		c2.005,12.409,4.869,25.069,10.752,25.069c5.359,0,5.011-6.568,2.669-14.728c-3.848-13.404-7.413-52.189-7.292-65.359l-2.3-46.141
		c-0.898-13.637-2.462-22.365-5.396-29.356c-4.247-10.116-10.611-6.75-16.147-0.238c-15.09,17.749-37.502,69.737-46.055,84.989
		c-2.596,4.628-5.075,1.043-4.987-3.32c0.421-20.901-0.495-62.747-1.214-71.336c-0.898-10.73-1.745-23.668-7.972-28.814
		c-8.909-7.364-17.383,7.821-20.513,13.909c-8.689,16.892-18.027,43.902-24.901,69.672
		C876.211,433.989,872.057,454.742,872.513,470.922L872.513,470.922z M697.915,415.626c-9.197-4.72-15.389-3.843-23.24-0.112
		c-6.271,2.98-14.498,9.836-20.371,15.936c-9.257,9.614-15.443,19.701-15.443,29.822c0,6.756,7.111,24.124,27.892,16.519
		c6.569-2.494,14.819-8.645,20.758-15.626c2.921-3.434,5.799-7.07,6.635-10.57c1.602-2.06,2.958,1.177,2.799,2.496
		c-0.073,0.606,0.078,2.227,0.367,4.769c1.657,14.592,5.327,19.539,10.255,20.244c11.424,1.635,28.291-23.153,33.072-29.39
		c1.956-2.552,0.716-0.925,1.881-2.266c4.533,16.729,21.37,23.031,35.198,20.056c12.12-2.608,21.524-11.433,19.822-20.021
		c-0.4-2.02-2.204-1.778-3.588-0.543c-6.916,6.175-14.918,12.683-25.914,11.231c-18.727-2.982-15.949-17.312-15.821-23.09
		c30.499-0.906,40.116-36.573,15.181-36.573c-15.131,0-21.3,25.709-27.299,34.55c-6.139,9.045-18.851,28.261-30.092,33.269
		c-2.112,1.043-2.786-1.199-2.782-4.487c0.033-22.298-1.169-33.833,4.586-56.85c1.308-5.232,15.462-65.304,4.449-65.38
		c-6.957,0.076-11.146,23.184-12.711,31.851C701.118,384.932,699.349,400.734,697.915,415.626L697.915,415.626z M756.618,423.554
		c1.073-5.543,6.413-13.334,11.123-15.847c0,0,4.975-2.146,4.602,2.658c-0.475,6.105-7.743,11.868-12.71,14.713
		C756.595,426.817,756.217,425.629,756.618,423.554z M654.209,451.284c4.285-4.87,13.051-15.973,26.232-24.025
		c13.181-8.052,13.701-5.455,13.701-5.455s1.948,0.26,1.039,2.467c-0.909,2.208-11.015,23.007-21.275,33.006
		c-4.247,4.139-16.422,18.045-23.463,10.629C648.297,465.646,647.391,459.595,654.209,451.284L654.209,451.284z M1240.464,389.079
		c0,18.241,6.451,24.942,10.506,33.96c-14.438,7.79-18.487,19.936-25.54,27.642c-4.561,4.983-17.751,10.48-17.016,1.135
		c0.587-7.448,1.576-16.618,2.42-23.106c0.895-6.879-2.351-12.442-10.147-8.94c-10.774,4.84-29.905,27.981-36.618,27.981
		c-11.318,0-6.469-24.53,26.875-40.031c4.684-2.177,10.401-4.44,15.157-5.782c7.659-2.162,2.346-9.832-1.399-8.96
		c-20.743,0-55.836,24.137-55.836,48.94c3.584,10.478,2.012,10.252-12.197,27.644c-5.432,6.774-11.44,4.02-12.097-3.833
		c-1.613-19.259,5.495-30.597,5.495-52.692c0-9.685-6.43-14.139-14.871-10.933c-6.689,2.54-12.347,7.716-16.618,12.555
		c-3.132,3.548-7.42,8.205-10.205,11.966c-4.487,6.057-7.286,9.025-10.569,12.228c-1.96,2.032-2.927,1.098-2.677,0.074
		c1.818-7.449,5.286-18.477,6.829-25.568c1.031-4.735,2.19-9.161,1.495-11.974c-0.952-3.858-5.128-5.015-7.501-1.806
		c-2.642,3.573-4.118,9.899-5.566,14.234c-2.197,6.756-5.651,11.573-9.052,17.97c-3.774,7.098-10.72,22.303-19.361,27.183
		c-4.472,2.525-6.255-0.016-6.312-4.442c-0.142-11.076,2.048-21.218,3.411-30.883c0.744-5.273,2.144-17.661,1.639-25.46
		c-0.332-5.128-1.374-6.811-5.028-6.887c-3.997,0.076-5.162,4.209-5.044,8.568c-1.233,12.359-15.564,89.271,14.563,68.101
		c9.232-8.182,14.64-19.559,19.56-26.732c-0.903,4.586-1.245,8.698-0.932,12.581c0.626,7.758,6.577,5.903,11.605,2.3
		c4.277-3.064,9.03-8.767,19.346-19.981c8.587-9.539,12.619-16.135,23.928-24.854c1.133-1.341,2.021-0.143,1.986,0.881
		c-0.501,14.643-6.381,26.703-6.381,47.734c0,6.744,4.283,20.999,12.679,23.523c6.681,2.009,15.774-3.453,28.784-28.049
		c9.31,2.169,13.508,4.086,25.216-5.721l19.315-17.382c-0.549,6.6-7.493,33.332,13.368,33.332c9.472,0,14.651-9.424,20.883-13.599
		c5.188,22.276,33.269,25.613,33.269-5.78c0-6.263-2.098-14.736-3.391-20.285l16.862-9.855c4.526-2.263,8.594-4.468,12.837-5.939
		c6.171-2.14,4.833-7.322,0.158-9.406c-4.098-1.827-9.897,2.655-19.058,7.216c-5.507,2.74-10.603,7.443-16.574,8.834
		c-10.863-17.117-8.598-28.47-6.646-35.421c1.686-6.001,1.989-8.216-3.86-9.878c-6.45,0-7.689,10.662-7.689,17.595L1240.464,389.079
		z M1257.073,431.331c0,0,1.38,10.708,0.92,16.85c-0.46,6.142-3.088,10.346-4.369,11.332c-1.281,0.986-3.719,1.042-5.846-0.756
		c-6.627-5.597-3.725-15.199,1.546-20.867C1251.574,435.47,1254.201,433.336,1257.073,431.331L1257.073,431.331z M95.988,380.005
		c0,6.462,0.305,18.071,7.839,18.071c10.958,0.15-16.373-20.938,28.029-54.938c4.594-3.517,8.865-6.272,14.968-8.508
		c-2.943,6.134-10.172,37.271-12.175,45.336c-3.868,15.574-6.704,31.91-9.485,47.573c-0.516-0.138-12.892-8.166-12.892,0.552
		c0,4.883,7.119,7.628,11.283,8.749c0,23.323-4.29,36.282,0.911,64.619c3.57,19.447,12.004,13.244,12.004,10.74
		c0-6.408-2.183-10.672-3.283-16.85c-0.993-5.578-1.544-13.365-1.624-18.819c-0.227-15.355,0.784-22.856,1.992-37.379
		c25.932,2.862,73.562-9.518,92.167-47.668c12.379-25.384-1.531-54.811-29.698-66.147c-11.428-4.6-15.713-4.554-30.93-4.554
		c-1.49-0.296-2.462-2.105-2.451-3.178c0.042-3.831-0.518-7.422-5.032-7.679c-5.925-0.338-6.699,9.518-7.008,12.4
		c-5.381,2.817-29.113,8.108-44.673,29.745C100.918,359.309,95.989,368.463,95.988,380.005L95.988,380.005z M134.768,430.408
		c0,0,6.503-32.643,12.369-55.467c5.865-22.824,10.839-43.864,10.839-43.864s28.69-5.611,44.629,7.013
		c10.97,8.688,19.675,23.234,17.265,39.333c-1.442,9.635-9.143,20.216-18.518,28.528c-9.114,8.081-19.813,13.98-27.881,17.349
		C163.022,427.664,152.897,430.492,134.768,430.408L134.768,430.408z M388.364,434.372c5.818-9.858,17.291-26.824,26.258-29.814
		c8.968-2.989,10.099-1.05,7.514,6.868c-2.586,7.918-15.674,38.459-22.946,49.689s-7.998,12.987-7.998,12.987
		s-5.333,6.97-10.908,0.182C372.621,464.957,382.955,443.418,388.364,434.372L388.364,434.372z M307.729,414.092
		c0,0-11.2-4.605-13.462-6.787s-3.91-7.757-1.001-12.766c2.909-5.009,7.433-8.564,10.342-10.019c2.909-1.454,9.13-2.343,9.615,3.555
		C313.708,393.974,311.203,403.831,307.729,414.092z"/>
	<g>
		<path fill="#108F38" d="M1153.727,292.679c3.99,0.187,5.034,0.67,7.712,1.472c2.678,0.803,6.882,2.624,7.685,3.133
			c0.804,0.509-3.213-0.375-5.195-0.884c-1.981-0.508-5.141-1.017-6.855-1.446c-1.714-0.428-3.052-0.75-4.82-1.178
			c-1.768-0.428,3.401-0.777,1.419-0.911L1153.727,292.679L1153.727,292.679z M1127.691,287.169
			c1.269,0.067,4.207-0.067,4.674,0.534s-0.334,2.67-1.87,2.604c-1.536-0.067-0.935-2.203-3.139-2.67L1127.691,287.169
			L1127.691,287.169z M782.544,194.442c-6.943,6.036-23.482,9.548-34.09,17.782l-17.745,7.901c-4.109,2.081-5.283,2.426-9.691,3.686
			c-2.541,1.104-5.854,1.878-8.394,2.982c-0.629,0.966-0.485,2.373-1.721,2.898c-1.872,0.608-3.293-0.595-4.226-0.221
			c-4.237,1.694-6.417,1.784-8.493,2.359l-8.11,2.145c-0.204,0.06-0.595,0.163-0.809,0.227l-2.767,0.889
			c-8.708,2.728-28.46,7.024-31.05,10.507c4.224-1.143,4.139-1.207,10.329-2.65c-5.388,7.356-24.71,11.652-34.9,10.938
			c-0.178,0.006,0.202,1.16,0.04,1.164c-0.886,0.024-1.253,0.389-2.136,0.335l-0.72-1.339c-4.104-0.664-2.588-0.014-5.741-0.423
			c-8.964,3.478,7.436,0.28-1.544,3.257c-12.144-1.732-27.155-3.519-39.298-6.464c-1.369-0.332-2.57,0.65-3.965,0.451
			c-6.453-1.351-11.97-3.309-17.762-6.48c5.138,0.619,10.166,3.004,15.304,3.622c2.629,0.317,4.522,0.306,0.916-1.449
			l-26.972-13.482c-4-1.239-3.496,0.749-4.121,1.113c-2.861-1.514-4.309-3.203-7.052-5.04c-9.341-6.255-7.299-0.251-15.307-6.808
			c-2.564-2.1-3.952-3.8-6.895-5.546l-34.137-12.858c-29.396-9.786-34.633-7.651-58.812-3.156
			c-7.757,1.443-13.013,1.959-21.538,1.959c1.587,6.629,0.942,2.149,0,4.147c-19.089,0-10.817,2.033-34.407,8.441
			c-1.49,0.405-5.614,1.39-7.496,2.18c-0.85,0.357-1.043,0.509-1.853,0.912l-21.996,8.414c-8.427,2.406-7.88,2.786-14.129,6.604
			l-28.212,14.639c-13.324,5.499-4.796,4.841-14.916,7.199c3.276,2.277,2.879-0.053,3.326,3.069c0.59,4.129-1.596,1.472-2.694,1.644
			c-0.262,0.042-0.727-0.011-1.007,0.026c-0.281,0.036-0.728-0.007-1.013,0.038c-9.06,1.448-0.49,1.196-6.906,3.519v-2.765
			c-7.993,1.863-10.713,7.959-16.217,12.812c-8.459,7.457-7.966,0.416-12.882,11.086c-0.012,0.025-1.254,2.29-1.308,2.37h4.146
			c-0.297,0.189-0.82-0.007-0.974,0.408c-0.013,0.033-12.916,3.948-10.084,10.583l28.153-17.41
			c9.745-5.422,21.398-11.074,31.008-16.023c22.022-11.339,48.559-20.447,65.23-28.649c1.676-1.623-2.675-1.345,4.146-1.518
			c6.26-1.235,11.643-3.588,16.811-5.232c5.429-1.727,11.884-2.876,17.732-4.374c7.61-1.948,33.984-6.257,37.868-8.294h-6.07
			c1.532-0.972-2.825-1.869,4.146-1.207c4.111,0.39,1.916-0.225,4.146,1.832l29.024-0.132c4.653-1.034,1.798-0.693,2.766,0.811
			c12.977,1.907,30.087,9.275,41.594,15.252c6.283,3.264,10.97,5.925,18.176,9.311c6.844,3.218,11.539,7.744,19.714,9.161
			c6.317-0.398,26.327,9.357,35.109,11.924l-6.943-4.1c6.2-3.473,4.493,2.714,18.107,3.086c12.82,0.35,35.986,4.8,47.674,1.401
			l14.822-4.116c-1.61,5.201,1.226,0.909-4.211,4.37c-0.541,0.344-5.772-0.009-2.508,1.952c3.258,0.035,11.282-6.109,20.764-10.097
			c7.322-3.079,14.252-4.424,18.293-5.617l4.557-2.854c4.279-0.873,19.843-5.782,23.683-7.651c7.7-3.747,15.654-5.992,23.448-9.206
			c0-2.121-0.582-1.728,1.382-1.561c7.139-1.652,16.528-7.929,24.444-11.592c9.418-4.359,16.266-9.255,24.291-13.036
			c17.446-8.221,36.344-16.842,57.512-9.832c5.201,2.566,7.073,5.702,14.191,9.325l10.146,10.92c1.954-0.692,10.32,2.204,9.842,1.02
			c-1.261-3.121-14.573-19.185-10.508-15.234c-0.807-3.8-3.349-6.888-7.382-10.756c-5.626-5.397-1.027,1.585-11.38-6.808
			c-11.048-8.956-20.693-8.718-34.388-4.028l-36.097,12.144c-5.575,3.365-2.663,2.071,0.734,3.197L782.544,194.442z
			 M970.394,244.326c0,0-2.93-3.663,0.163-1.465c3.093,2.197,12.21,8.465,14.733,11.07c2.524,2.605,5.607,2.926,9.686,7.569
			s4.808,4.842,7.164,7.585c-4.56-1.007-10.259-5.771-15.067-10.667c-4.808-4.897-7.034-7.301-9.081-8.369
			C975.943,248.982,970.394,244.326,970.394,244.326L970.394,244.326z M268.308,270.689c2.406-2.004,3.909-1.704,4.209-0.3
			c0.301,1.403-2.806,2.606-3.708,2.606S268.007,271.19,268.308,270.689z M944.09,221.135c1.174,1.035,2.553,2.209,3.036,1.104
			c0.483-1.104,1.726-1.243,0.207-2.208c-1.518-0.966-2.485-2.277-2.968-1.587C943.883,219.134,944.435,222.654,944.09,221.135
			L944.09,221.135z M931.185,219.151c1.116,0.279,2.929,0.511,6.556,0.604c2.208,0.138,2.968-0.552,1.035-1.174
			c-1.932-0.621-4.555-1.587-6.142-1.449c-1.587,0.138-4.072,0.76-4.486,0.966C927.735,218.305,928.149,221.273,931.185,219.151
			L931.185,219.151z M855.895,189.253c0,0,6.763,5.176,7.66,6.142c0.897,0.966-0.483,0.828-2.346-0.414
			c-1.863-1.243-5.038-4.348-5.038-4.348L855.895,189.253L855.895,189.253z M846.233,190.495c0.966,0.552,4.14,1.035,2.967,0.207
			c-1.173-0.828-2.899-1.725-2.899-1.725S845.68,190.218,846.233,190.495L846.233,190.495z M808.139,190.15
			c0.621-0.69,2.967-0.897,2.553-0.138C810.279,190.77,807.311,191.737,808.139,190.15z M797.65,190.081
			c1.587-0.415,3.933-0.828,5.244-0.346c1.311,0.483,1.242,2.691,0,2.691s-5.658-0.276-5.658-0.276S796.132,190.909,797.65,190.081
			L797.65,190.081z M789.368,193.324c0.552-1.104,2.208-2.691,3.036-3.174s2.416,0,2.139,0.966
			C794.268,192.082,789.713,196.153,789.368,193.324L789.368,193.324z M611.046,258.47c1.311,0,3.864-0.414,5.314,0
			c1.449,0.414,1.794,1.932-0.414,1.932C613.737,260.402,609.597,260.264,611.046,258.47z M515.063,220.977
			c-0.92-1.345-9.265-5.089-3.652-0.593C512.326,221.117,516.904,223.668,515.063,220.977z M500.23,218.572
			c0,1.503,2.004,4.31,2.706,3.308c0.702-1.002,1.303-1.704,0.601-3.508c-0.701-1.804-2.706-2.706-3.408-3.408
			C499.428,214.262,499.228,215.665,500.23,218.572L500.23,218.572z M335.458,230.198c3.007,0.2,7.116-1.704,4.109-1.303
			C336.56,229.296,330.146,230.7,335.458,230.198z M229.869,305.045l0.611,2.953c4.758-0.53,12.043-3.66,16.319-5.287l6.194-3.015
			c1.532-1.81-1.938-2.514,3.018-2.947l1.382-2.765l1.382-1.383c1.866-1.297-1.174,0.168,2.674-1.472
			c1.3-0.554,2.795-0.904,4.081-1.449c6.77-2.875,8.474-8.656,18.123-10.904v-4.267c-9.624,5.092-17.88,9.708-27.734,15.315
			C250.831,292.72,233.082,301.854,229.869,305.045L229.869,305.045z M910.597,224.947c13.131-2.155,15.485,0.464,29.904,0.884
			l5.19-0.15c0.888-2.582,2.189,3.162-0.709-0.578c-2.32-2.994-2.041,1.642-0.672-1.34l4.146,0.075v-1.745l1.382,1.484l5.586,1.632
			c-0.294,0.181-0.858-0.001-0.996,0.444c-0.829,2.679-2.97-1.426-3.844,2.576c21.154,3.629,22.272,13.78,36.57,18.755
			c-1.565-2.141-3.396-2.492-5.695-4.37c-1.262-1.03-1.318-1.77-2.405-2.738l-3.205-2.71c-11.421-12.033-18.59-21.02-37.395-25.914
			c-3.604-0.937-4.018-0.883-6.837-1.148c-8.593-0.809-8.366-0.593-17.396,1.252l-9.336,3.148c-4.417,1.384-6.538,0.781-15.81-2.741
			c-2.366-0.899-4.447-2.593-6.692-3.763c-4.326-2.255-2.197-2.544-7.174-3.876c1.92,4.941,0.349,1.184,2.704,4.274
			c5.511,7.233,8.429,9.346,11.093,10.184c1.032,0.325,2.099,6.304,3.794,6.579c1.372,0.223,6.88-0.645,7.966-0.349
			c6.147,1.672,3.157,0.377,9.832,0.139L910.597,224.947z M1066.491,276.011l-7.408-3.042l-0.304-0.654
			c-0.091-0.861,11.45,0.125,14.563,1.678c12.58,8.073,0.405,0.718,25.351,7.05c6.352,1.611,8.464-0.21,14.022,2.17
			c1.984,0.85,11.146,5.73,11.157,0.045c-28.493-9.271-16.171-1.188-36.653-8.508c-13.63-4.448,8.216-1.116-21.532-5.401
			c-11.508-1.657-24.939-3.39-36.48-4.32c-3.653-0.551-3.131-2.721-5.693-3.266c-2.302-0.49-3.198,1.886-5.136,0.431
			c-4.617-2.125-8.488-7.374-13.255-2.152c3.491,2.886,9.428,5.525,13.99,7.491C1022.567,269.019,1060.456,277.103,1066.491,276.011
			L1066.491,276.011z"/>
	</g>
	<path fill="#C5C5C5" d="M125.604,526.219h278.731v-4.201H125.604V526.219z M434.084,526.219h879.096v-4.201H434.084
		L434.084,526.219L434.084,526.219z"/>
	<path fill="#086331" d="M498.57,548.41h-5.486v24.34h-24.056v-24.34h-5.485v56.891h5.485v-27.176h24.056v27.176h5.486V548.41z
		 M544.911,563.64c-9.186,0-16.852,7.69-16.852,21.577c0,13.14,7.137,20.98,16.389,20.98c7.996,0,16.852-6.421,16.852-21.577
		C561.3,572.152,554.758,563.641,544.911,563.64L544.911,563.64z M555.683,584.844c0,9.183-4.56,16.5-11.102,16.5
		c-6.476,0-10.904-7.317-10.904-16.35c0-7.839,3.239-16.5,11.036-16.5C552.577,568.493,555.683,577.601,555.683,584.844
		L555.683,584.844z M592.177,564.61h-5.552v4.854h5.552v23.369c0,4.33,0.264,13.289,8.988,13.289c2.313,0,4.164-0.374,5.353-0.971
		l-0.33-4.779c-0.925,0.374-2.048,0.598-3.701,0.598c-3.503,0-4.891-2.837-4.891-7.988v-23.518h9.318v-4.854h-9.318v-9.482
		l-5.419,2.091V564.61L592.177,564.61z M659.666,599.103c-2.247,1.045-4.956,2.091-9.451,2.091c-6.476,0-12.16-4.256-12.226-15.53
		h24.518c0.066-0.971,0.133-2.016,0.133-3.434c0-7.093-2.842-18.59-13.944-18.59c-9.715,0-16.059,9.183-16.059,21.95
		c0,12.169,6.278,20.531,16.785,20.531c5.486,0,9.252-1.418,11.301-2.539L659.666,599.103L659.666,599.103z M638.122,581.036
		c0.529-5.599,3.437-12.692,10.045-12.692c7.071,0,9.12,7.168,9.054,12.692H638.122z M697.416,545.571h-5.486V605.3h5.486V545.571
		L697.416,545.571z M796.46,548.409l-8.393,28.595c-2.247,7.453-4.296,14.857-5.617,21.503h-0.199
		c-1.321-6.645-3.172-13.825-5.287-21.527l-7.732-28.57h-5.948l15.927,56.891h5.815l17.315-56.892L796.46,548.409L796.46,548.409z
		 M854.737,579.841c0-8.063-2.644-16.201-12.821-16.201c-4.031,0-8.063,1.269-10.971,3.434l1.322,4.256
		c2.445-1.941,5.684-2.912,8.79-2.912c8.194,0,8.194,7.764,8.194,11.199c-13.35-0.075-20.884,5.226-20.884,15.007
		c0,5.898,3.635,11.573,10.508,11.573c5.089,0,8.79-2.912,10.64-6.123h0.198l0.529,5.226h5.023
		c-0.463-2.837-0.529-6.346-0.529-9.706L854.737,579.841L854.737,579.841z M849.318,591.862c0,4.928-3.767,9.557-9.12,9.557
		c-3.304,0-6.212-2.315-6.212-7.541c0-8.586,8.526-9.706,15.332-9.706V591.862z M912.816,599.029
		c-1.784,0.896-4.23,2.016-7.798,2.016c-7.27,0-12.491-6.197-12.491-16.052c0-8.735,4.362-16.276,12.689-16.276
		c3.503,0,5.882,1.12,7.402,2.091l1.388-5.003c-1.388-0.822-4.626-2.165-8.657-2.165c-11.103,0-18.438,9.183-18.438,21.726
		c0,12.468,6.807,20.756,17.117,20.756c4.626,0,8.194-1.418,9.781-2.315L912.816,599.029L912.816,599.029z M970.782,579.841
		c0-8.063-2.644-16.201-12.821-16.201c-4.031,0-8.063,1.269-10.971,3.434l1.322,4.256c2.445-1.941,5.684-2.912,8.79-2.912
		c8.194,0,8.194,7.764,8.194,11.199c-13.35-0.075-20.884,5.227-20.884,15.007c0,5.898,3.635,11.573,10.508,11.573
		c5.089,0,8.79-2.912,10.64-6.123h0.198l0.528,5.226h5.023c-0.463-2.837-0.528-6.346-0.528-9.706L970.782,579.841L970.782,579.841z
		 M965.362,591.862c0,4.928-3.766,9.557-9.12,9.557c-3.304,0-6.212-2.315-6.212-7.541c0-8.586,8.526-9.706,15.332-9.706
		L965.362,591.862L965.362,591.862z M1029.63,599.029c-1.784,0.896-4.229,2.016-7.798,2.016c-7.27,0-12.491-6.197-12.491-16.052
		c0-8.735,4.362-16.276,12.689-16.276c3.503,0,5.882,1.12,7.402,2.091l1.388-5.003c-1.388-0.822-4.626-2.165-8.657-2.165
		c-11.102,0-18.438,9.183-18.438,21.726c0,12.468,6.807,20.756,17.117,20.756c4.626,0,8.194-1.418,9.781-2.315L1029.63,599.029
		L1029.63,599.029z M1069.577,553.188c0-2.315-1.388-4.181-3.568-4.181c-2.115,0-3.635,1.866-3.635,4.181
		c0,2.389,1.454,4.256,3.569,4.256C1068.057,557.443,1069.577,555.801,1069.577,553.188L1069.577,553.188z M1068.718,564.61h-5.486
		v40.69h5.486V564.61L1068.718,564.61z M1118.776,563.64c-9.187,0-16.852,7.69-16.852,21.577c0,13.14,7.137,20.98,16.39,20.98
		c7.997,0,16.852-6.421,16.852-21.577C1135.166,572.152,1128.624,563.64,1118.776,563.64L1118.776,563.64z M1129.548,584.843
		c0,9.183-4.56,16.5-11.102,16.5c-6.476,0-10.904-7.317-10.904-16.35c0-7.839,3.238-16.5,11.037-16.5
		C1126.442,568.493,1129.549,577.601,1129.548,584.843L1129.548,584.843z M1197.252,580.513c0-13.812-7.666-16.873-12.16-16.873
		c-5.617,0-9.781,3.583-11.565,7.541h-0.132l-0.33-6.57h-4.891c0.132,3.285,0.264,6.334,0.264,10.515V605.3h5.486v-24.887
		c0-7.142,4.758-11.622,9.451-11.622c6.278,0,8.393,5.823,8.393,12.468V605.3h5.485V580.513z M1257.97,579.841
		c0-8.063-2.644-16.201-12.821-16.201c-4.031,0-8.063,1.269-10.971,3.434l1.322,4.256c2.445-1.941,5.684-2.912,8.79-2.912
		c8.194,0,8.194,7.764,8.194,11.199c-13.35-0.075-20.884,5.226-20.884,15.007c0,5.898,3.635,11.573,10.508,11.573
		c5.089,0,8.79-2.912,10.64-6.123h0.199l0.528,5.227h5.023c-0.463-2.837-0.528-6.346-0.528-9.706L1257.97,579.841L1257.97,579.841z
		 M1252.551,591.862c0,4.928-3.767,9.557-9.12,9.557c-3.304,0-6.212-2.315-6.212-7.541c0-8.586,8.526-9.706,15.332-9.706
		L1252.551,591.862L1252.551,591.862z M1298.205,545.572h-5.486V605.3h5.486V545.572L1298.205,545.572z"/>
	<path fill="#99C327" d="M940.503,225.832c3.234,2.951,7.91,4.103,11.711,6.291c4.47,2.573,6.179,4.522,10.065,6.557l1.382,1.387
		c3.985,0.738,3.17-0.734,1.484,1.382c2.529,5.99,14.52,14.784,21.303,20.06c3.894,3.029,6.142,4.905,10.972,5.679
		c-2.578-1.693-6.998-5.358-10.348-8.769c-3.349-3.411-7.034-7.301-9.081-8.369c-2.048-1.068-7.597-5.723-7.597-5.723
		s-2.93-3.663,0.163-1.465c3.093,2.197,12.21,8.465,14.733,11.069c2.523,2.605,7.192,4.695,9.685,7.57
		c3.106,3.581,17.12,10.736,21.488,11.804c15.911,3.891,54.923,10.551,70.206,11.085c1.265-0.03,2.765-0.236,4.026,0.046
		c2.705,0.602,1.436,0.333,2.885,1.254c8.9,0,12.448,1.382,22.114,1.382c-3.83,5.229-0.513,2.204-5.777,1.853
		c-4.433-0.294-4.663-0.617-9.426-0.037c-15.848-1.351-39.641-5.376-54.479-8.76c-20.436-1.282-33.69-4.108-51.945-10.323
		c2.202,3.997,0.424,1.433,3.853,3.76c0.258,0.175,0.615,0.361,0.882,0.524c3.246,1.981-1.94-0.981,1.796,0.958
		c5.748,2.983,9.437,3.233,15.392,5.302c13.026,4.525,15.504,2.576,27.832,2.576l38.511,5.719c6.294,0.906,3.792,2.436,12.583,2.622
		c10.686,0.224,16.311,0.86,24.576,0.874c6.038,0.622,5.97,0.564,10.348,0.496c-6.294-2.318-8.241,2.223-11.383-5.563
		c4.723,2.267,5.396-1.061,8.451-1.508c3.494-0.511,9.141,1.654,10.899,1.508v2.766c5.199,0,7.239,0.057,14.716,2.08l4.927-0.348
		c1.043-0.346,3.601-2.418,3.853-3.114c-4.717,0-7.142-0.044-11.057-2.765c-8.082,2.681,4.671,1.218-3.568,2.385
		c-5.149,0.728-2.578-1.007-5.733-2.637c-3.982-2.056-10.863-2.512-16.576-2.512c-0.012,5.685-9.67,1.135-11.653,0.286
		c-5.558-2.38-7.34-1.166-13.692-2.777c-24.946-6.331-13.865,3.1-26.445-4.974l-2.498-0.831l-2.764,1.216
		c-6.036,1.092-45.152-9.163-48.605-10.651c-4.563-1.966-9.03-4.004-13.59-5.154c-3.436-2.731-6.178-3.864-9.28-6.55
		c-3.9-3.373-3.516-5.132-8.688-6.508c-14.297-4.974-15.417-15.125-36.57-18.755c0.873-4.002,3.015,0.104,3.844-2.576
		c0.138-0.445,0.701-0.263,0.995-0.444l-5.586-1.632l-1.382,0.261l-4.146-0.075c-1.368,2.983-1.647-1.654,0.673,1.34
		c2.898,3.74,1.598-2.004,0.709,0.578l-5.19,0.15L940.503,225.832z M1168.213,294.509c0.255-0.122,1.095,0.783,3.965,0.41
		c1.04-0.135,4.319,1.072,7.921,1.656c2.059,0.333,4.334,0.176,6.083,0.176l-14.535-3.842c-1.114-0.199-5.829-1.211-6.908-0.059
		c-1.568,1.673,4.905-0.29,3.473,1.66H1168.213z M669.99,262.339c4.116-1.205,10.542-3.414,14.457-5.02s6.727-1.305,3.313,0.302
		c-3.414,1.606-15.561,5.722-17.468,6.124C668.384,264.146,668.184,263.041,669.99,262.339L669.99,262.339z M656.337,263.644
		c1.506-2.108,8.734-6.024,14.759-8.132c6.023-2.108,10.742-3.012,14.958-4.719c4.216-1.706,8.533-3.614,18.874-6.826
		c10.341-3.213,10.642-2.109-3.514,3.313c-14.156,5.422-12.248,2.912-24.396,8.032C664.87,260.431,661.859,262.339,656.337,263.644z
		 M594.997,276.594c3.815,2.208,9.537,3.714,15.862,3.915c6.325,0.201,11.646-0.503,11.646-0.503s0.502-1.004-5.422-0.904
		c-5.923,0.1-9.839-0.603-12.851-1.606C601.221,276.494,592.687,274.987,594.997,276.594L594.997,276.594z M525.881,256.728
		c0,0,9.705,4.897,14.156,7.123c4.452,2.226,12.732,4.541,14.958,4.986c2.226,0.445,1.692-0.445-1.336-1.513
		c-3.028-1.068-12.375-5.164-14.245-6.143s-5.877-3.205-7.301-4.452c-1.424-1.246-4.897-2.849-4.897-2.849s4.63,2.671,7.746,3.295
		c3.116,0.624,4.897-0.356,4.897-0.356l-17.985-8.992c0,0,0.623,2.582-0.624,2.226c-1.246-0.356-4.095-0.623-4.095-0.623
		l5.075,3.205c0.801,0.356,2.671,1.424,3.027,2.404c0.356,0.98,0.623,1.692,0.623,1.692L525.881,256.728z M837.764,204.999
		c0,0,5.164-1.691,9.705,0.712c4.54,2.404,6.588,4.63,6.588,4.63s-7.924-3.829-10.15-4.007
		C841.681,206.155,840.167,205.888,837.764,204.999L837.764,204.999z M803.398,213.991c2.76-1.781,5.61-3.116,8.013-3.561
		c2.404-0.446-3.828,2.938-3.828,2.938s0.801,0.445-1.424,1.246C803.932,215.416,798.056,216.306,803.398,213.991L803.398,213.991z
		 M756.388,234.024c3.74-1.692,8.458-3.561,12.108-5.075c3.65-1.513,6.322-3.383,9.526-5.609c3.205-2.226,5.431-2.938,6.855-3.383
		c1.425-0.445,1.959,0.98,1.157,2.137c-0.801,1.157-5.431,4.452-9.526,5.876s-8.013,4.095-11.308,5.342
		c-3.294,1.246-7.746,2.315-7.746,2.315s-4.007,0.534-1.068-1.603L756.388,234.024z M742.054,241.681
		c1.959-1.603,3.65-3.561,5.61-3.918c1.958-0.356,5.965-0.801,2.582,1.336C746.862,241.236,741.787,243.818,742.054,241.681
		L742.054,241.681z M715.433,249.961c3.205-2.315,7.568-4.362,10.417-5.787c2.849-1.424,4.274,0.267-1.157,3.028
		C719.262,249.961,712.406,252.721,715.433,249.961L715.433,249.961z M688.278,262.693c0,0,5.52-2.938,7.924-4.095
		c2.404-1.158,3.205,0.178-1.425,2.582C690.148,263.583,685.696,265.008,688.278,262.693L688.278,262.693z M1130.388,294.494
		c5.332,0,3.629,0.873,10.05,0.633l-0.375-0.204c-5.332,0-3.092-1.382-9.675-1.382V294.494z M815.553,199.973
		c-1.455,1.583,3.102,1.382-3.925,1.382c-1.131,1.048,0.477,2.491-2.764,0.437l-17.968,7.394c0,2.283,0.647,1.847-1.382,1.847
		l-2.764,1.382l-2.764,1.302h-1.382l-1.382,1.462l-2.766,1.352h-1.382c0,1.932,0.418,1.593-1.382,0.817
		c-4.619,1.897-4.078,2.932-8.93,5.543c-11.358,6.112-18.035,7.161-27.166,11.512c-15.188,7.237-14.2,10.169-35.416,15.908
		c-6.133,1.659-11.707,6.977-18.577,9.924l-46.505,15.084c-4.296,1.379-5.403,1.333-8.777,3.456
		c11.667-0.242,20.505-4.684,30.657-5.53c-7.737,11.557-17.294,7.638-28.115,7.607c-7.044-0.021-2.889,6.093-29.745,1.917
		l-10.205-3.653c-7.719-3.77-5.07-0.554-7.952-4.488l-5.45-0.986c-0.034-0.026-0.172-0.279-0.103-0.396
		c-3.301-2.138-2.129-1.573-6.886-1.817c-2.971,0.304-7.087-0.119-9.57-1.029c-3.029-1.11-1.267-0.275-3.504-2.048
		c-0.307-0.243-3.482-3.374-3.513-3.401c-3.761,0-2.079,0.336-4.385-0.981c-3.401-1.941-2.264,0.318-0.747-1.784
		c-2.321-3.151,1.077-1.831-4.544-2.377v0.995c-3.813-0.889-3.114-0.666-5.528-2.766h3.814c-3.37-2.911-24.004-13.314-28.693-15.273
		l3.364,4.999c0.143,0.139,0.536,0.38,0.783,0.596c-7.07-0.588-3.767-1.126-10.188-2.841l3.933-3.068
		c-9.176-7.907-36.417-19.135-51.669-19.616c-27.354-0.863-37.068,2.221-61.962,6.67c-15.114,2.7-41.993,10.352-54.25,16.056
		c-7.984,3.715-44.904,18.669-48.128,22.154l51.447-18.955l37.017-11.29c16.906-3.351,36.078-10.781,42.96-9.075
		c0.006,0.003,0.576,1.395,2.559,1.611l10.768-1.805c10.999-1.513,29.524-0.195,41.896,3.252c5.896,1.4,18.308,7.14,23.18,11.376
		l-1.589,2.696c6.743,1.592,6.923,1.824,11.264,5.599c-3.947-0.328-20.478-6.599-21.475-9.055l-0.395-1.702
		c-5.193-2.492-12.15-5.668-19.595-5.833c0.397,4.766,1.927,5.395,4.954,5.553c3.539-0.063,6.247-0.369,6.634-0.175
		c5.558,2.791-3.645,1.051,15.054,8.066c6.278,2.355,10.532,6.706,17.587,7.294c1.79,1.557,0.456,0.644,3.236,2.292l27.18,14.288
		c13.404,6.245,20.483,8.304,40.072,8.304c0.099,0.178,0.163,0.325,0.194,0.578c1.016,8.447,51.654,6.615,64.806,0.843
		c5.294-2.323,15.683-12.058,27.413-14.791l-0.781,1.292l-7.322,5.165c-0.662,0.433-0.07,0.98,1,0.763
		c4.532-0.919,10.003-4.547,14.303-6.283c16.145-6.521,3.935-3.861,16.057-5.97c8.444-1.469,16.649-6.625,24.378-9.421
		c17.199-6.224,20.21-6.708,38.57-16.663c2.032-1.102,20.201-10.367,22.762-11.835c2.221-1.273-14.615,6.587-12.302,5.172
		c5.792-3.545,11.417-7.338,14.622-10.399c4.932-2.588,3.827,3.172,5.936,2.115c5.141-4.441,5.265-5.856,8.294-2.39
		c9.415-1.079,12.037-9.148,17.346-8.254c11.48,1.933-2.693-0.536,5.213-1.814c6.284,0,15.364,1.432,20.483,3.015
		c5.764,1.782,8.668,1.752,12.4,5.603c0.199,0.204,0.454,0.527,0.652,0.731l15.292,11.997c5.208,4.044,9.392,5.095,16.734,7.09
		c12.298,3.342,2.489,4.205,17.343,3.47c15.134-0.749,17.446-6.174,31.357-1.883c1.608,0.496,5.083,2.308,6.467,2.672
		c2.326,0.611,6.597,1.911,8.199,2.879l6.09,5.903c-0.639-6.924-5.739-7.242-9.706-10.449c-6.404-5.175-5.504-6.804-16.123-8.078
		c-2.598,0.413-2.086,0.806-5.199,0.358c-6.009,0.368-13.625,2.375-17.078,2.617c-9.056,0.637-8.007-1.135-1.333-2.329
		c3.949-0.706,9.522-0.401,17.078-1.475c-7.414-2.941-20.735-2.196-29.402-0.609c0.24-0.392-1.176-0.979,0.612-0.027
		c4.085,2.177,1.462,0.302,0.749,2.013l-5.956,0.12l0.402,2.158c-5.563,0.81-26.579-10.396-31.383-16.43
		c-4.55-3.553-5.985-6.691-11.416-9.179l-1.383-2.047l-2.764-0.456c-4.113-1.488-3.076,0.211-1.505-1.812l-5.405-4.112
		c-0.301,0.186-0.821-0.02-0.99,0.381l-22.184,5.458l-13.983,2.054c2.974-2.158,5.96-2.373,9.59-3.572
		c8.718-2.879,16.656-6.541,21.892-6.164c-9.186-1.989-18.909-2.2-24.953,1.807L815.553,199.973z M649.012,266.108
		c-3.264-1.961,1.966-1.608,2.508-1.952c5.437-3.46,2.601,0.832,4.212-4.37l-14.823,4.116c-11.687,3.398-34.854-1.051-47.673-1.401
		c-13.614-0.372-11.907-6.559-18.107-3.086l6.943,4.1c-8.783-2.567-28.792-12.322-35.109-11.924
		c7.611,10.49,53.981,23.45,74.515,20.568c4.922-0.69,9.758-1.004,14.632-1.803c2.138-0.351,4.965-0.787,6.905-1.333
		L649.012,266.108L649.012,266.108z M872.743,215.281c1.691-1.229,1.081-0.788,1.081,1.282l1.382,1.382l2.764,1.382l1.382,1.583
		c7.032,3.272,17.088,6.35,27.642,6.048c0.958-2.4-0.034-2.889,1.382-0.957l11.056-1.305v-1.724h-1.382
		c-2.108,0.297-3.126,0.719-5.579,0.544c-7.976-0.57-3.149,0.084-5.479-1.841c-4.6,0.164-7.724-0.804-9.924-1.47
		c-0.991-0.299,3.198,2.21,6.007,3.9c-6.856-1.531-11.752-5.278-12.427-5.506c-3.273-1.102-4.687,0.359-12.735-10.205
		c-2.355-3.09-0.784,0.667-2.704-4.274c-1.153-1.716,0.726-0.426-1.771-2.318c-2.16-1.637-0.268-0.408-2.381-1.11
		c-0.891-0.865-1.668-1.507-2.349-1.969c-1.608-1.092,5.859,11.094,14.857,18.248c-9.682-7.46-19.364-17.718-21.038-17.613
		c-0.823,0.052-1.838-0.666-3.662-3.705c-7.319-2.318-4.071-2.742-11.481-0.992c3.859,3.066,9.208,5.535,12.767,8.851
		c7.26,3.476,7.57,4.658,12.589,11.768L872.743,215.281z"/>
</g>
</svg>
