<?xml version="1.0" encoding="utf-8"?>
<!-- Generator: Adobe Illustrator 16.0.3, SVG Export Plug-In . SVG Version: 6.00 Build 0)  -->
<!DOCTYPE svg PUBLIC "-//W3C//DTD SVG 1.1//EN" "http://www.w3.org/Graphics/SVG/1.1/DTD/svg11.dtd">
<svg version="1.1" id="Camada_1" xmlns="http://www.w3.org/2000/svg" xmlns:xlink="http://www.w3.org/1999/xlink" x="0px" y="0px"
	  viewBox="4.453 13.938 22.94 3.988" enable-background="new 4.453 13.938 22.94 3.988"
	 xml:space="preserve">
<g>
	<path fill="#009FE3" d="M7.899,16.074c-0.339-0.415-1.456-0.198-2.327,0.08C5.561,16.158,5.55,16.151,5.55,16.14
		c0.001-0.044,0.002-0.088,0.002-0.133c0-0.244-0.02-0.453-0.056-0.66C5.495,15.34,5.5,15.333,5.508,15.331
		c0.721-0.263,2.172-0.344,2.42,0.732l0,0C7.933,16.079,7.909,16.088,7.899,16.074 M7.169,17.281
		c-0.024,0.018-0.055-0.012-0.035-0.031c0.351-0.359,0.639-0.928-1.902,0.229c-0.015,0.008-0.031-0.009-0.021-0.021
		c0.14-0.2,0.265-0.522,0.321-0.98c0-0.005,0.004-0.01,0.01-0.012C7.136,15.825,8.934,15.848,7.169,17.281 M5.043,14.42
		c-0.015-0.007-0.008-0.028,0.008-0.027c0.441,0.001,1.768-0.032,2.452,0.84c0.009,0.015-0.012,0.03-0.025,0.019
		c-0.207-0.18-0.765-0.484-2.053-0.218c-0.009,0.002-0.018-0.003-0.02-0.011C5.302,14.695,5.172,14.518,5.043,14.42 M7.874,14.006
		H4.98c-0.249,0-0.45,0.205-0.45,0.457V17.4c0,0.252,0.202,0.457,0.45,0.457h2.894c0.249,0,0.451-0.205,0.451-0.457v-2.938
		C8.324,14.21,8.123,14.006,7.874,14.006"/>
	<path fill="#009FE3" d="M8.968,14.743h0.931c0.483,0,0.771,0.298,0.771,0.719c0,0.421-0.288,0.719-0.771,0.719h-0.49v0.882H8.968
		V14.743z M9.878,15.813c0.259,0,0.365-0.166,0.365-0.351s-0.106-0.351-0.365-0.351h-0.47v0.702H9.878z M11.551,15.366
		c0.507,0,0.871,0.364,0.871,0.861s-0.364,0.861-0.871,0.861c-0.51,0-0.875-0.364-0.875-0.861S11.041,15.366,11.551,15.366z
		 M11.551,16.737c0.275,0,0.46-0.209,0.46-0.51s-0.186-0.51-0.46-0.51c-0.278,0-0.464,0.209-0.464,0.51S11.273,16.737,11.551,16.737
		z M12.608,15.989c0-0.381,0.215-0.596,0.596-0.596h0.374v0.341h-0.311c-0.163,0-0.252,0.092-0.252,0.255v1.074h-0.407V15.989z
		 M13.784,14.889h0.407v0.503h0.464v0.341h-0.464v0.729c0,0.168,0.09,0.254,0.242,0.254h0.222v0.346h-0.269
		c-0.364,0-0.603-0.213-0.603-0.584V14.889L13.784,14.889z M15.651,15.366c0.507,0,0.872,0.364,0.872,0.861
		s-0.365,0.861-0.872,0.861c-0.51,0-0.874-0.364-0.874-0.861S15.142,15.366,15.651,15.366z M15.651,16.737
		c0.275,0,0.46-0.209,0.46-0.51s-0.186-0.51-0.46-0.51c-0.278,0-0.463,0.209-0.463,0.51S15.373,16.737,15.651,16.737z"/>
	<path d="M16.941,16.283h0.424c0.02,0.259,0.201,0.424,0.49,0.424c0.258,0,0.439-0.1,0.439-0.304c0-0.497-1.285-0.152-1.285-1.034
		c0-0.381,0.338-0.652,0.832-0.652c0.5,0,0.824,0.282,0.846,0.715H18.27c-0.02-0.202-0.172-0.338-0.428-0.338
		c-0.252,0-0.391,0.113-0.391,0.275c0,0.507,1.285,0.123,1.285,1.027c0,0.43-0.365,0.692-0.881,0.692
		C17.324,17.088,16.967,16.777,16.941,16.283z"/>
	<path d="M19.693,15.366c0.559,0,0.811,0.407,0.811,0.805c0,0.056-0.002,0.106-0.006,0.139h-1.232
		c0.029,0.268,0.203,0.44,0.461,0.44c0.209,0,0.344-0.086,0.387-0.244h0.398c-0.063,0.354-0.375,0.582-0.785,0.582
		c-0.547,0-0.852-0.43-0.852-0.867C18.875,15.78,19.146,15.366,19.693,15.366z M20.098,16.042c-0.018-0.212-0.162-0.371-0.404-0.371
		c-0.229,0-0.375,0.119-0.418,0.371H20.098z"/>
	<path d="M20.67,16.167c0-0.467,0.295-0.801,0.789-0.801c0.207,0,0.393,0.086,0.486,0.225v-0.199h0.408v1.643
		c0,0.428-0.336,0.702-0.84,0.702c-0.488,0-0.805-0.259-0.805-0.652h0.404c0.008,0.192,0.16,0.312,0.4,0.312
		c0.26,0,0.436-0.146,0.436-0.361v-0.299c-0.094,0.15-0.275,0.236-0.484,0.236C20.969,16.973,20.67,16.635,20.67,16.167z
		 M21.521,16.625c0.268,0,0.453-0.189,0.453-0.458c0-0.269-0.186-0.454-0.453-0.454c-0.266,0-0.447,0.185-0.447,0.454
		C21.074,16.436,21.256,16.625,21.521,16.625z"/>
	<path d="M24.193,17.062h-0.406v-0.259c-0.094,0.183-0.283,0.285-0.521,0.285c-0.377,0-0.621-0.271-0.621-0.662v-1.033h0.406v0.947
		c0,0.229,0.139,0.387,0.348,0.387c0.229,0,0.389-0.178,0.389-0.423v-0.911h0.406V17.062L24.193,17.062z"/>
	<path d="M24.916,16.273v0.788h-0.408v-1.669h0.408v0.295c0.082-0.212,0.211-0.295,0.428-0.295h0.195v0.341h-0.262
		C25.018,15.734,24.916,15.956,24.916,16.273z"/>
	<path d="M25.572,16.227c0-0.497,0.363-0.861,0.873-0.861c0.508,0,0.871,0.364,0.871,0.861s-0.363,0.861-0.871,0.861
		C25.936,17.088,25.572,16.724,25.572,16.227z M26.445,16.737c0.275,0,0.461-0.209,0.461-0.51s-0.186-0.51-0.461-0.51
		c-0.277,0-0.463,0.209-0.463,0.51S26.168,16.737,26.445,16.737z"/>
</g>
</svg>
