<svg id="Layer_1" data-name="Layer 1" xmlns="http://www.w3.org/2000/svg" viewBox="0 0 203.73 29.02"><defs><style>.cls-1{fill:#ec111a;}</style></defs><title>logo</title><g id="surface1"><path class="cls-1" d="M49.5,8.83A10.09,10.09,0,1,0,59.58,18.92,10.08,10.08,0,0,0,49.5,8.83Zm0,14.54a4.47,4.47,0,1,1,3.17-1.3A4.45,4.45,0,0,1,49.5,23.37Z"/><path class="cls-1" d="M72.43,9.31H69.68v-6h-6v6H60.89v5.46h2.75V28.52h6V14.77h2.75Z"/><path class="cls-1" d="M75.18,9.31h6v19.2h-6Z"/><path class="cls-1" d="M78.2,0a3.36,3.36,0,1,0,3.35,3.37A3.36,3.36,0,0,0,78.2,0Z"/><path class="cls-1" d="M164.58,14.49a3.58,3.58,0,0,1,3.58,3.59V28.54h6V17.33c0-5.1-2.95-8.42-7.6-8.42-1.92,0-3.93.84-5.59,3.53V9.38h-6V28.54h6V18.08A3.59,3.59,0,0,1,162,15.52,3.55,3.55,0,0,1,164.58,14.49Z"/><path class="cls-1" d="M196.14,28.52l-7.4-9.6,6.88-9.61h-7l-5.53,7.78V.48h-6v28h6V20.6l6.07,7.92Z"/><path class="cls-1" d="M18.7,23.35a8.8,8.8,0,0,0,.66-3.54,7.31,7.31,0,0,0-1.73-4.89c-1.28-1.41-3.48-2.59-6.53-3.48a10.67,10.67,0,0,1-1.72-.61,4.4,4.4,0,0,1-1.27-.95,2.19,2.19,0,0,1-.55-1.56,2.28,2.28,0,0,1,1.22-2,5.91,5.91,0,0,1,4.77,0,12.69,12.69,0,0,1,1.94.91l2.56-5.1A14.71,14.71,0,0,0,14.38.52,16.46,16.46,0,0,0,10.31,0,10.9,10.9,0,0,0,6.47.63,8.6,8.6,0,0,0,3.55,2.54,8.9,8.9,0,0,0,1.6,5.47,9.45,9.45,0,0,0,1,9a7.5,7.5,0,0,0,2.27,5.1,12.5,12.5,0,0,0,4.54,2.54c.8.3,1.68.58,2.24.79a8.26,8.26,0,0,1,1.65.84,2.8,2.8,0,0,1,.88,1,2.17,2.17,0,0,1,.19,1.23,2.45,2.45,0,0,1-.85,1.65,4,4,0,0,1-2.77.77,8.56,8.56,0,0,1-3.37-.81,26,26,0,0,1-2.68-1.49L0,25.89A13.66,13.66,0,0,0,8.54,29a14.61,14.61,0,0,0,4.54-.72,10.52,10.52,0,0,0,3.44-1.93A8.84,8.84,0,0,0,18.7,23.35Z"/><path class="cls-1" d="M200.39,21.81a3.36,3.36,0,1,0,1.25,6.47,3.36,3.36,0,0,0-1.25-6.47Zm0,6a2.69,2.69,0,1,1,2.67-2.69,2.61,2.61,0,0,1-.78,1.9A2.68,2.68,0,0,1,200.39,27.85Z"/><path class="cls-1" d="M200.37,25.72h-.53V27h-.66V23.33h1.4a1.2,1.2,0,0,1,.52,2.29l.77,1.37h-.79Zm-.53-.61h.77a.56.56,0,1,0,0-1.12h-.77Z"/><path class="cls-1" d="M35.2,21.7a4.44,4.44,0,1,1-.7-6.25,5.7,5.7,0,0,1,.7.69l4-4a10.06,10.06,0,0,0-7.45-3.29c-5.55,0-10.34,3.94-10.34,10.06S26.23,29,31.78,29a10.09,10.09,0,0,0,7.46-3.3Z"/><path class="cls-1" d="M104.77,28.54V9.31H98.9v2l-.55-.48a7.33,7.33,0,0,0-5.09-2c-5.19,0-9.57,4.62-9.57,10.08S88.08,29,93.26,29a7.29,7.29,0,0,0,5.09-2l.55-.48v2ZM94.23,23.45a4.56,4.56,0,1,1,3.23-1.32A4.56,4.56,0,0,1,94.23,23.45Z"/><path class="cls-1" d="M152.08,28.54V9.31h-5.87v2l-.55-.48a7.36,7.36,0,0,0-5.09-2c-5.18,0-9.56,4.62-9.56,10.08S135.4,29,140.57,29a7.27,7.27,0,0,0,5.09-2l.55-.48v2Zm-10.49-5.09a4.55,4.55,0,1,1,4.53-4.55A4.55,4.55,0,0,1,141.59,23.45Z"/><path class="cls-1" d="M113.76,28.54v-2l.54.47a7.33,7.33,0,0,0,5.09,2c5.19,0,9.57-4.62,9.57-10.09s-4.38-10.08-9.57-10.08a7.38,7.38,0,0,0-5.09,2l-.54.48V.48h-5.88V28.54Zm.12-9.61a4.54,4.54,0,1,1,4.55,4.52,4.55,4.55,0,0,1-4.55-4.52Z"/></g></svg>