<svg width="44" height="51" viewBox="0 0 44 51" fill="none" xmlns="http://www.w3.org/2000/svg">
<path d="M14.1304 47.2341V47.5341H14.7308V47.123H14.1304V47.223V47.2341Z" fill="#004A82"/>
<path d="M14.7308 45.9233H14.1304V46.3233H14.7308V45.9233Z" fill="#004A82"/>
<path d="M16.8297 42.5796H16.3516L16.5962 43.6682L16.8297 43.7904L17.0743 43.6682L17.3189 42.5796H16.8297Z" fill="#004A82"/>
<path d="M19.841 48.4561H18.9404V48.856H19.841V48.4561Z" fill="#004A82"/>
<path d="M19.841 47.1338H18.9404V47.5337H19.841V47.1338Z" fill="#004A82"/>
<path d="M19.841 45.9233H18.9404V46.3233H19.841V45.9233Z" fill="#004A82"/>
<path d="M21.94 42.5796H21.4619L21.7065 43.6682L21.94 43.7904L22.1846 43.6682L22.4292 42.5796H21.94Z" fill="#004A82"/>
<path d="M24.9509 48.4561H24.0503V48.856H24.9509V48.4561Z" fill="#004A82"/>
<path d="M24.9509 47.1338H24.0503V47.5337H24.9509V47.1338Z" fill="#004A82"/>
<path d="M24.9509 45.9233H24.0503V46.3233H24.9509V45.9233Z" fill="#004A82"/>
<path d="M27.0504 42.5796H26.5723L26.8057 43.6682L27.0392 43.7904L27.2727 43.6682L27.5173 42.5796H27.0392H27.0504Z" fill="#004A82"/>
<path d="M29.1602 47.2341V47.5341H29.7605V47.123H29.1602V47.223V47.2341Z" fill="#004A82"/>
<path d="M29.7605 45.9233H29.1602V46.3233H29.7605V45.9233Z" fill="#004A82"/>
<path d="M36.1698 37.8027H34.8701V38.0138H36.1698V37.8027Z" fill="#004A82"/>
<path d="M36.1698 39.1245H34.8701V39.3356H36.1698V39.1245Z" fill="#004A82"/>
<path d="M36.1698 36.4922H34.8701V36.6921H36.1698V36.4922Z" fill="#004A82"/>
<path d="M36.1698 35.1812H34.8701V35.3811H36.1698V35.1812Z" fill="#004A82"/>
<path d="M36.1698 33.8594H34.8701V34.0593H36.1698V33.8594Z" fill="#004A82"/>
<path d="M36.1698 32.5371H34.8701V32.7371H36.1698V32.5371Z" fill="#004A82"/>
<path d="M34.3589 33.8594H32.3594V39.3359H34.3589V33.8594Z" fill="#004A82"/>
<path d="M31.8598 37.8027H30.5601V38.0138H31.8598V37.8027Z" fill="#004A82"/>
<path d="M31.8598 39.1245H30.5601V39.3356H31.8598V39.1245Z" fill="#004A82"/>
<path d="M31.8598 36.4922H30.5601V36.6921H31.8598V36.4922Z" fill="#004A82"/>
<path d="M31.8598 35.1812H30.5601V35.3811H31.8598V35.1812Z" fill="#004A82"/>
<path d="M31.8598 33.8594H30.5601V34.0593H31.8598V33.8594Z" fill="#004A82"/>
<path d="M31.8598 32.5371H30.5601V32.7371H31.8598V32.5371Z" fill="#004A82"/>
<path d="M28.6606 40.0469H25.4502V40.6579H28.6606V40.0469Z" fill="#004A82"/>
<path d="M28.0494 34.459H26.0498V39.7356H28.0494V34.459Z" fill="#004A82"/>
<path d="M20.3403 40.0469V40.6579H23.5507V40.0469H20.3403Z" fill="#004A82"/>
<path d="M22.9502 39.7468V34.4702H20.9507V39.7468H22.9502Z" fill="#004A82"/>
<path d="M18.4404 40.0469H15.23V40.6579H18.4404V40.0469Z" fill="#004A82"/>
<path d="M17.8404 34.459H15.8408V39.7356H17.8404V34.459Z" fill="#004A82"/>
<path d="M13.3305 37.8027H12.0308V38.0138H13.3305V37.8027Z" fill="#004A82"/>
<path d="M13.3305 39.1245H12.0308V39.3356H13.3305V39.1245Z" fill="#004A82"/>
<path d="M13.3305 36.4922H12.0308V36.6921H13.3305V36.4922Z" fill="#004A82"/>
<path d="M13.3305 35.1812H12.0308V35.3811H13.3305V35.1812Z" fill="#004A82"/>
<path d="M13.3305 33.8594H12.0308V34.0593H13.3305V33.8594Z" fill="#004A82"/>
<path d="M13.3305 32.5371H12.0308V32.7371H13.3305V32.5371Z" fill="#004A82"/>
<path d="M11.5196 33.8594H9.52002V39.3359H11.5196V33.8594Z" fill="#004A82"/>
<path d="M9.03116 36.4922H7.73145V36.6921H9.03116V36.4922Z" fill="#004A82"/>
<path d="M9.03116 37.8027H7.73145V38.0138H9.03116V37.8027Z" fill="#004A82"/>
<path d="M9.03116 35.1812H7.73145V35.3811H9.03116V35.1812Z" fill="#004A82"/>
<path d="M9.03116 33.8594H7.73145V34.0593H9.03116V33.8594Z" fill="#004A82"/>
<path d="M9.03116 32.5371H7.73145V32.7371H9.03116V32.5371Z" fill="#004A82"/>
<path d="M9.03116 39.1245H7.73145V39.3356H9.03116V39.1245Z" fill="#004A82"/>
<path d="M16.7853 22.7061C17.3963 22.7061 17.8851 22.2062 17.8851 21.5952C17.8851 20.9843 17.3852 20.4844 16.7853 20.4844C16.1854 20.4844 15.6855 20.9843 15.6855 21.5952C15.6855 22.2062 16.1854 22.7061 16.7853 22.7061Z" fill="#004A82"/>
<path d="M21.9396 22.7061C22.5506 22.7061 23.0394 22.2062 23.0394 21.5952C23.0394 20.9843 22.5395 20.4844 21.9396 20.4844C21.3397 20.4844 20.8398 20.9843 20.8398 21.5952C20.8398 22.2062 21.3397 22.7061 21.9396 22.7061Z" fill="#004A82"/>
<path d="M27.1051 22.7061C27.7161 22.7061 28.2049 22.2062 28.2049 21.5952C28.2049 20.9843 27.705 20.4844 27.1051 20.4844C26.5053 20.4844 26.0054 20.9843 26.0054 21.5952C26.0054 22.2062 26.5053 22.7061 27.1051 22.7061Z" fill="#004A82"/>
<path d="M14.0302 27.1604H13.9746C13.1526 26.1718 11.9084 25.5386 10.531 25.5386C9.15349 25.5386 7.90932 26.1607 7.08728 27.1604H7.03174V27.5603H14.0413V27.1604H14.0302Z" fill="#004A82"/>
<path d="M29.7599 24.7278V24.1279H14.1411V24.7278H29.7599Z" fill="#004A82"/>
<path d="M15.23 26.4605H28.6492V25.9495H29.749V25.4385H14.1191V25.9495H15.2189V26.4605H15.23Z" fill="#004A82"/>
<path d="M28.6604 27.1606H15.2412V27.5606H28.6604V27.1606Z" fill="#004A82"/>
<path d="M30.5596 28.3831H13.3301V27.8721H7.72021V29.0829H14.1299V29.7939H29.7598V29.0829H36.1694V27.8721H30.5596V28.3831Z" fill="#004A82"/>
<path d="M7.72021 30.9154H9.31986V31.8263H9.54203C9.7531 32.1374 10.1197 32.3373 10.5196 32.3373C10.9195 32.3373 11.275 32.1374 11.4972 31.8263H11.7304V30.9154H13.3301V30.1045H7.72021V30.9154Z" fill="#004A82"/>
<path d="M30.5601 30.9154H32.1597V31.8263H32.393C32.604 32.1374 32.9706 32.3373 33.3705 32.3373C33.7705 32.3373 34.1259 32.1374 34.3481 31.8263H34.5703V30.9154H36.1699V30.1045H30.5601V30.9154Z" fill="#004A82"/>
<path d="M16.8296 31.604C17.2296 31.604 17.5517 31.9373 17.5517 32.3372C17.5517 32.7371 17.2296 33.0704 16.8296 33.0704C16.4297 33.0704 16.1076 32.7482 16.1076 32.3372C16.1076 31.9262 16.4297 31.604 16.8296 31.604ZM14.1302 31.6262H16.1187C16.0632 31.6818 16.0076 31.7595 15.9632 31.8262H15.23V32.9371H16.0298C16.2076 33.1815 16.4964 33.337 16.8296 33.337C17.1629 33.337 17.4517 33.1703 17.6295 32.9371H18.4293V31.8262H17.6961C17.6517 31.7484 17.5961 31.6818 17.5406 31.6262H20.4955C20.751 31.093 21.3064 30.7153 21.9396 30.7153H14.1302V31.6262Z" fill="#004A82"/>
<path d="M27.0499 31.604C27.4498 31.604 27.772 31.9373 27.772 32.3372C27.772 32.7371 27.4498 33.0704 27.0499 33.0704C26.65 33.0704 26.3279 32.7482 26.3279 32.3372C26.3279 31.9262 26.65 31.604 27.0499 31.604ZM23.3841 31.6262H26.339C26.2834 31.6818 26.2279 31.7595 26.1834 31.8262H25.4503V32.9371H26.2501C26.4278 33.1815 26.7167 33.337 27.0499 33.337C27.3832 33.337 27.672 33.1703 27.8497 32.9371H28.6496V31.8262H27.9164C27.872 31.7484 27.8275 31.6818 27.7609 31.6262H29.7493V30.7153H21.9399C22.5731 30.7153 23.1286 31.093 23.3841 31.6262Z" fill="#004A82"/>
<path d="M19.9399 31.8378V32.9486H20.4625C20.3847 32.7598 20.3513 32.5598 20.3513 32.3377C20.3513 32.1599 20.3847 31.9933 20.4291 31.8267H19.9399V31.8378Z" fill="#004A82"/>
<path d="M23.5506 32.3373C23.5506 32.5484 23.5062 32.7594 23.4395 32.9483H23.962V31.8374H23.4728C23.5173 31.9929 23.5506 32.1707 23.5506 32.3484V32.3373Z" fill="#004A82"/>
<path d="M22.9505 32.3374C22.9505 32.0597 22.8394 31.8042 22.6617 31.6154L22.0618 32.393C22.0618 32.393 22.0618 32.393 22.0618 32.4152C22.0618 32.4152 22.0618 32.4152 22.0618 32.4263L22.0396 32.4485C22.0396 32.4485 21.9285 32.4707 21.8841 32.4263C21.8841 32.4152 21.8618 32.4041 21.8618 32.393L21.5397 31.8931L21.9729 32.1819L22.6839 31.6154C22.5061 31.4376 22.2506 31.3154 21.9729 31.3154C21.4175 31.3154 20.9731 31.7709 20.9731 32.3263C20.9731 32.8817 21.4175 33.3372 21.9729 33.3372C22.5284 33.3372 22.9727 32.8817 22.9727 32.3263" fill="#004A82"/>
<path d="M15.23 34.0588H18.4404V33.5479H15.23V34.0588Z" fill="#004A82"/>
<path d="M21.9394 33.9595C21.5395 33.9595 21.1618 33.804 20.8729 33.5596H20.3286V34.0706H23.539V33.5596H22.9947C22.717 33.8151 22.3393 33.9595 21.9283 33.9595" fill="#004A82"/>
<path d="M28.6606 33.5479H25.4502V34.0588H28.6606V33.5479Z" fill="#004A82"/>
<path d="M16.341 43.2349L16.2521 42.835C15.0413 43.1016 14.1304 44.2013 14.1304 45.5121H14.9302C14.9302 44.5901 15.5634 43.8236 16.4299 43.6348L16.3854 43.4348L16.341 43.2349Z" fill="#004A82"/>
<path d="M21.4063 43.0239L21.3619 42.8462C20.4399 43.0573 19.6956 43.7349 19.3846 44.6236C19.0735 43.7349 18.3404 43.0573 17.4072 42.8462L17.3628 43.0239L17.2295 43.6349C18.0849 43.8238 18.7292 44.6014 18.7292 45.5123H20.0289C20.0289 44.5903 20.6621 43.8238 21.5285 43.6349L21.3952 43.0239H21.4063Z" fill="#004A82"/>
<path d="M26.4723 42.8462C25.5502 43.0573 24.806 43.7349 24.4949 44.6125C24.1839 43.7238 23.4507 43.0461 22.5176 42.8462L22.4731 43.0239L22.3398 43.6349C23.1952 43.8238 23.8395 44.6014 23.8395 45.5123H25.1392C25.1392 44.5903 25.7724 43.8238 26.6389 43.6349L26.5056 43.0239L26.4611 42.8462H26.4723Z" fill="#004A82"/>
<path d="M27.6382 42.8461L27.5938 43.0238L27.4604 43.6348C28.3158 43.8236 28.9601 44.6012 28.9601 45.5121H29.7599C29.7599 44.2013 28.849 43.1127 27.6382 42.835" fill="#004A82"/>
<path d="M18.8403 48.0005C18.8403 48.0005 18.7959 48.0227 18.7959 48.0449C18.7959 48.0671 18.8181 48.0894 18.8403 48.0894C18.8624 48.0894 18.8846 48.0671 18.8846 48.0449C18.8846 48.0227 18.8624 48.0005 18.8403 48.0005Z" fill="#004A82"/>
<path d="M19.14 48.1006C19.14 48.1006 19.1178 48.0562 19.0956 48.0562C19.0735 48.0562 19.0513 48.0784 19.0513 48.1006C19.0513 48.1228 19.0735 48.145 19.0956 48.145C19.1178 48.145 19.14 48.1228 19.14 48.1006Z" fill="#004A82"/>
<path d="M19.4398 47.9004C19.4398 47.9004 19.4176 47.856 19.3954 47.856C19.3733 47.856 19.3511 47.8782 19.3511 47.9004C19.3511 47.9226 19.3733 47.9448 19.3954 47.9448C19.4176 47.9448 19.4398 47.9226 19.4398 47.9004Z" fill="#004A82"/>
<path d="M19.152 16.0078H18.4404V16.7188H19.152V16.0078Z" fill="#004A82"/>
<path d="M20.0519 16.0078H19.3403V16.7188H20.0519V16.0078Z" fill="#004A82"/>
<path d="M21.8517 16.0078H21.1401V16.7188H21.8517V16.0078Z" fill="#004A82"/>
<path d="M22.7511 16.0078H22.0396V16.7188H22.7511V16.0078Z" fill="#004A82"/>
<path d="M20.9518 16.0078H20.2402V16.7188H20.9518V16.0078Z" fill="#004A82"/>
<path d="M18.2409 16.0078H17.5293V16.7188H18.2409V16.0078Z" fill="#004A82"/>
<path d="M15.5417 16.0078H14.8301V16.7188H15.5417V16.0078Z" fill="#004A82"/>
<path d="M16.4416 16.0078H15.73V16.7188H16.4416V16.0078Z" fill="#004A82"/>
<path d="M17.341 16.0078H16.6294V16.7188H17.341V16.0078Z" fill="#004A82"/>
<path d="M29.0612 16.0078H28.3496V16.7188H29.0612V16.0078Z" fill="#004A82"/>
<path d="M28.1613 16.0078H27.4497V16.7188H28.1613V16.0078Z" fill="#004A82"/>
<path d="M27.2614 16.0078H26.5498V16.7188H27.2614V16.0078Z" fill="#004A82"/>
<path d="M43.9013 28.105V0.5H0V28.5382C0 28.7382 0.0222173 29.0492 0.0222173 29.0492C0.422128 40.9577 10.0755 50.5 21.9507 50.5C33.8258 50.5 43.7458 40.7133 43.9125 28.5938V28.2716C43.9125 28.1161 43.9125 28.2716 43.9125 28.1272M14.1413 17.1296L14.6412 16.6186V14.9968H14.8411V15.8077H29.0602V14.9968H29.2602V16.6186L29.76 17.1296V17.7406H14.1302V17.1296H14.1413ZM1.51078 32.9483H6.8207V33.6593H1.68851C1.63297 33.426 1.57743 33.1927 1.52188 32.9483H1.51078ZM36.7696 43.1794H30.1488V43.7904H36.2364C35.581 44.4125 34.8811 44.9901 34.148 45.5122H30.1377V46.1232H33.2593C31.8263 47.0563 30.2822 47.8228 28.6492 48.3783V45.5122C28.6492 44.6124 27.9271 43.8904 27.0495 43.8904C26.172 43.8904 25.4499 44.6124 25.4499 45.5122V49.2003C24.8278 49.3114 24.1835 49.3891 23.5503 49.4336V45.5122C23.5503 44.6124 22.8283 43.8904 21.9507 43.8904C21.0731 43.8904 20.351 44.6124 20.351 45.5122V49.4336C19.7178 49.3891 19.0735 49.3003 18.4515 49.2003V45.5122C18.4515 44.6124 17.7294 43.8904 16.8518 43.8904C15.9742 43.8904 15.2522 44.6124 15.2522 45.5122V48.3894C13.6081 47.8228 12.064 47.0563 10.631 46.1232H13.7414V45.5122H9.74228C9.00911 44.979 8.30926 44.4125 7.65385 43.7904H13.7414V43.1794H7.13175V41.5575H14.1413V41.8575H29.7712V41.5575H36.7807V43.1794H36.7585H36.7696ZM42.2017 33.6593H37.0695V32.9483H42.3795C42.3239 33.1816 42.2684 33.426 42.2128 33.6593H42.2017ZM42.7683 30.5044H36.7696V30.9044H42.7238C42.6905 31.1376 42.6683 31.382 42.6239 31.6153H36.7696V39.7246H37.0695V33.9481H42.124C42.0351 34.2925 41.924 34.6258 41.824 34.959H40.6798V37.7695C40.4355 38.2805 40.1688 38.7693 39.88 39.2469V34.959H38.0693V39.7246H39.569C39.2357 40.2467 38.8913 40.7577 38.5137 41.2465H36.7696V40.6355H30.16V41.0354H13.7414V40.6355H7.13175V41.2465H5.38769C5.01 40.7577 4.65452 40.2467 4.32126 39.7246H5.82093V34.959H4.01022V39.2469C3.72139 38.7582 3.45479 38.2694 3.2104 37.7695V34.959H2.06621C1.95512 34.6258 1.85514 34.2925 1.76627 33.9481H6.8207V39.7246H7.12064V31.6153H1.26638C1.23306 31.382 1.19973 31.1487 1.16641 30.9044H7.12064V30.5044H1.12197C1.09976 30.2378 1.06643 29.9712 1.04421 29.6935H7.10953V27.8717H6.30971V26.9608H6.84292C7.09842 26.6609 7.38725 26.3831 7.7094 26.1499V24.7279H9.32015C9.66452 24.9279 10.0755 25.0501 10.5199 25.0501C10.9642 25.0501 11.3641 24.939 11.7196 24.7279H13.9302V24.117H12.4306V23.817H8.62031V24.117H7.12064V23.0061H7.7205C7.79827 20.4178 10.5643 18.3516 13.9747 18.3516H29.9045C33.3148 18.3516 36.092 20.4289 36.1586 23.0061H36.7585V24.117H35.2588V23.817H31.4486V24.117H29.9489V24.7279H32.1595C32.5039 24.9279 32.9149 25.0501 33.3592 25.0501C33.8036 25.0501 34.2035 24.939 34.559 24.7279H36.1697V26.1499C36.4919 26.3831 36.7807 26.6609 37.0362 26.9608H37.5694V27.8717H36.7696V29.6935H42.8349C42.8127 29.9601 42.7905 30.2378 42.7572 30.5044" fill="#004A82"/>
<path d="M26.3502 16.0078H25.6387V16.7188H26.3502V16.0078Z" fill="#004A82"/>
<path d="M23.651 16.0078H22.9395V16.7188H23.651V16.0078Z" fill="#004A82"/>
<path d="M24.5504 16.0078H23.8389V16.7188H24.5504V16.0078Z" fill="#004A82"/>
<path d="M25.4503 16.0078H24.7388V16.7188H25.4503V16.0078Z" fill="#004A82"/>
<path d="M36.8695 27.3721V27.1722H36.814C35.992 26.1724 34.7478 25.5503 33.3703 25.5503C31.9928 25.5503 30.7487 26.1724 29.9266 27.1722H29.8711V27.5721H36.8806V27.3721H36.8695Z" fill="#004A82"/>
</svg>
